<svg width="384" height="189" viewBox="0 0 384 189" fill="none" xmlns="http://www.w3.org/2000/svg">
<g clip-path="url(#clip0_6992_665)">
<path d="M191.497 147.521C219.968 147.521 243.049 124.441 243.049 95.969C243.049 67.4974 219.968 44.4166 191.497 44.4166C163.025 44.4166 139.944 67.4974 139.944 95.969C139.944 124.441 163.025 147.521 191.497 147.521Z" stroke="black" stroke-opacity="0.2" stroke-width="0.356764"/>
<path d="M191.501 182.128C239.085 182.128 277.659 143.554 277.659 95.9695C277.659 48.3855 239.085 9.81104 191.501 9.81104C143.917 9.81104 105.342 48.3855 105.342 95.9695C105.342 143.554 143.917 182.128 191.501 182.128Z" stroke="black" stroke-opacity="0.2" stroke-width="0.356764"/>
<path d="M191.501 230.291C265.685 230.291 325.822 170.153 325.822 95.9693C325.822 21.7855 265.685 -38.3523 191.501 -38.3523C117.317 -38.3523 57.1792 21.7855 57.1792 95.9693C57.1792 170.153 117.317 230.291 191.501 230.291Z" stroke="black" stroke-opacity="0.2" stroke-width="0.356764"/>
</g>
<circle cx="139" cy="91" r="12" fill="#FFA800"/>
<path d="M142.959 92.3824C142.774 91.9446 142.415 91.5819 141.882 91.2942C142.705 91.1212 143.191 90.5833 143.339 89.6807C143.395 89.354 143.38 89.0539 143.295 88.78C143.209 88.5059 143.059 88.2639 142.844 88.0536C142.63 87.8433 142.384 87.661 142.108 87.5067C141.831 87.3524 141.505 87.2068 141.13 87.0701L141.62 85.2442L140.497 84.9433L140.021 86.7185C139.827 86.6664 139.529 86.5917 139.127 86.4946L139.607 84.7049L138.484 84.404L137.995 86.2299C137.833 86.1917 137.596 86.131 137.285 86.0477L135.741 85.6261L135.423 86.8144L136.232 87.0313C136.602 87.1303 136.774 87.3526 136.749 87.6979L136.192 89.7775C136.241 89.7905 136.279 89.8034 136.307 89.8161L136.19 89.7848L135.41 92.6975C135.305 92.9334 135.131 93.0188 134.888 92.9537L134.078 92.7368L133.497 94.0022L134.955 94.3931C135.048 94.4178 135.181 94.4548 135.356 94.5039C135.53 94.5533 135.661 94.5896 135.748 94.6131L135.253 96.4607L136.377 96.7617L136.866 94.9358C137.069 94.9955 137.365 95.0773 137.754 95.1815L137.266 97.0001L138.389 97.301L138.884 95.4534C139.288 95.5409 139.652 95.5997 139.974 95.629C140.297 95.6584 140.615 95.6544 140.928 95.6163C141.24 95.5784 141.514 95.5002 141.748 95.382C141.983 95.2639 142.198 95.0908 142.392 94.8632C142.585 94.6354 142.745 94.3547 142.871 94.0208C143.115 93.3665 143.144 92.8203 142.959 92.3824ZM138.8 87.8045C138.834 87.8136 138.93 87.8381 139.089 87.878C139.248 87.9179 139.38 87.9507 139.485 87.9763C139.59 88.0019 139.729 88.0457 139.903 88.1078C140.076 88.1698 140.221 88.2292 140.336 88.2859C140.451 88.3426 140.574 88.4183 140.705 88.5129C140.836 88.6075 140.934 88.7064 141 88.8095C141.067 88.9127 141.114 89.034 141.141 89.1735C141.169 89.3129 141.162 89.4623 141.119 89.6217C141.083 89.757 141.028 89.8744 140.954 89.9738C140.881 90.0732 140.79 90.1486 140.683 90.2C140.575 90.2515 140.468 90.2926 140.36 90.3234C140.253 90.3541 140.123 90.3672 139.971 90.3626C139.818 90.358 139.686 90.351 139.574 90.3417C139.462 90.3324 139.325 90.3099 139.162 90.2741C139 90.2383 138.877 90.2106 138.794 90.1909C138.71 90.1711 138.597 90.1408 138.455 90.1C138.312 90.0592 138.228 90.0355 138.204 90.0289L138.8 87.8045L138.8 87.8045L138.8 87.8045ZM140.544 93.5605C140.468 93.6592 140.383 93.74 140.288 93.8026C140.193 93.865 140.078 93.9118 139.942 93.9426C139.806 93.9736 139.677 93.9933 139.555 94.002C139.432 94.0108 139.288 94.0083 139.123 93.9951C138.957 93.9817 138.813 93.965 138.69 93.9452C138.568 93.9254 138.423 93.8969 138.256 93.8599C138.089 93.8228 137.959 93.7919 137.867 93.7672C137.774 93.7424 137.658 93.7098 137.517 93.6697C137.377 93.6296 137.287 93.6043 137.249 93.5939L137.905 91.1447C137.944 91.1551 138.06 91.1837 138.253 91.2303C138.447 91.2769 138.604 91.3166 138.725 91.3492C138.847 91.3817 139.013 91.4338 139.223 91.5058C139.433 91.5774 139.607 91.6473 139.745 91.7154C139.883 91.7835 140.03 91.8707 140.187 91.9775C140.343 92.0841 140.463 92.1952 140.547 92.3108C140.631 92.4266 140.691 92.5616 140.728 92.7164C140.764 92.8712 140.759 93.0356 140.713 93.2095C140.677 93.3449 140.62 93.4617 140.544 93.5605Z" fill="white"/>
<g clip-path="url(#clip1_6992_665)">
<g clip-path="url(#clip2_6992_665)">
<g clip-path="url(#clip3_6992_665)">
<path d="M221.017 93.9625C221.017 77.9314 208.021 64.9355 191.99 64.9355C175.959 64.9355 162.963 77.9314 162.963 93.9625C162.963 109.994 175.959 122.989 191.99 122.989C208.021 122.989 221.017 109.994 221.017 93.9625Z" fill="#052233"/>
<path d="M220.809 93.9624C220.809 78.0458 207.906 65.1428 191.99 65.1428C176.073 65.1428 163.17 78.0458 163.17 93.9624C163.17 109.879 176.073 122.782 191.99 122.782C207.906 122.782 220.809 109.879 220.809 93.9624Z" fill="#052233" stroke="black" stroke-opacity="0.1" stroke-width="0.414671"/>
<path d="M214.796 93.9625C214.796 81.3666 204.585 71.1556 191.99 71.1556C179.394 71.1556 169.183 81.3666 169.183 93.9625C169.183 106.558 179.394 116.769 191.99 116.769C204.585 116.769 214.796 106.558 214.796 93.9625Z" fill="#052233"/>
<path d="M178.87 103.004L186.43 86.2044H189.502L197.086 103.004H193.822L187.318 87.8604H188.566L182.086 103.004H178.87ZM182.35 99.1164L183.19 96.6684H192.262L193.102 99.1164H182.35ZM199.222 103.004V86.2044H202.342V103.004H199.222Z" fill="#F5F5F5"/>
</g>
</g>
</g>
<path d="M67.6383 74.9029C66.0356 81.3315 59.5244 85.2438 53.095 83.6407C46.6683 82.0381 42.756 75.5265 44.3594 69.0984C45.9614 62.669 52.4725 58.7564 58.8999 60.3591C65.3289 61.9618 69.241 68.474 67.6381 74.903L67.6382 74.9029H67.6383Z" fill="#50AF95"/>
<path fill-rule="evenodd" clip-rule="evenodd" d="M57.518 73.3603V73.3603C57.4332 73.3667 56.9948 73.3928 56.0169 73.3928C55.2391 73.3928 54.6868 73.3695 54.4931 73.3603V73.3603C51.4873 73.2281 49.2437 72.7048 49.2437 72.0783C49.2437 71.4518 51.4873 70.9293 54.4931 70.795V72.8392C54.6897 72.8533 55.2525 72.8865 56.0303 72.8865C56.9637 72.8865 57.4311 72.8476 57.5152 72.8399V70.7964C60.5147 70.93 62.7533 71.4533 62.7533 72.0783C62.7533 72.7034 60.5154 73.2266 57.5152 73.3596V73.3596L57.518 73.3603ZM57.5184 70.5849V68.7557H61.7044V65.9662H50.3075V68.7557H54.4928V70.5842C51.091 70.7405 48.5327 71.4143 48.5327 72.2218C48.5327 73.0293 51.091 73.7025 54.4928 73.8594V79.7212H57.5177V73.8573C60.9117 73.701 63.4658 73.0279 63.4658 72.2211C63.4658 71.4143 60.9139 70.7412 57.5177 70.5842V70.5842L57.5184 70.5849Z" fill="white"/>
<g clip-path="url(#clip4_6992_665)">
<path d="M247 40C253.627 40 259 34.6274 259 28C259 21.3726 253.627 16 247 16C240.373 16 235 21.3726 235 28C235 34.6274 240.373 40 247 40Z" fill="#627EEA"/>
<path d="M247.374 19V25.6525L252.996 28.165L247.374 19Z" fill="white" fill-opacity="0.602"/>
<path d="M247.373 19L241.75 28.165L247.373 25.6525V19Z" fill="white"/>
<path d="M247.374 32.4755V36.9958L253 29.2115L247.374 32.4755Z" fill="white" fill-opacity="0.602"/>
<path d="M247.373 36.9958V32.4748L241.75 29.2115L247.373 36.9958Z" fill="white"/>
<path d="M247.374 31.4294L252.996 28.1647L247.374 25.6537V31.4294Z" fill="white" fill-opacity="0.2"/>
<path d="M241.75 28.1647L247.373 31.4294V25.6537L241.75 28.1647Z" fill="white" fill-opacity="0.602"/>
</g>
<g clip-path="url(#clip5_6992_665)">
<path d="M268 141C274.627 141 280 135.627 280 129C280 122.373 274.627 117 268 117C261.373 117 256 122.373 256 129C256 135.627 261.373 141 268 141Z" fill="#E84142"/>
<path d="M272.234 129.312C272.651 128.592 273.319 128.592 273.736 129.312L276.323 133.857C276.741 134.577 276.4 135.163 275.57 135.163H270.352C269.531 135.163 269.191 134.577 269.599 133.857L272.234 129.312ZM267.227 120.561C267.645 119.841 268.303 119.841 268.72 120.561L269.296 121.603L270.655 123.993C270.986 124.675 270.986 125.477 270.655 126.158L266.09 134.069C265.672 134.712 264.986 135.12 264.218 135.163H260.431C259.6 135.163 259.259 134.587 259.677 133.857L267.227 120.561Z" fill="white"/>
</g>
<g clip-path="url(#clip6_6992_665)">
<path d="M121 163C127.627 163 133 157.627 133 151C133 144.373 127.627 139 121 139C114.373 139 109 144.373 109 151C109 157.627 114.373 163 121 163Z" fill="#0033AD"/>
<path d="M120.793 143.545C121.153 143.359 121.591 143.788 121.401 144.141C121.289 144.429 120.868 144.505 120.654 144.286C120.427 144.076 120.501 143.659 120.793 143.544V143.545ZM116.927 143.954C117.145 143.866 117.422 144.062 117.4 144.297C117.422 144.55 117.107 144.738 116.884 144.617C116.59 144.505 116.623 144.034 116.927 143.954ZM124.846 144.624C124.504 144.583 124.45 144.055 124.778 143.949C125.033 143.827 125.267 144.056 125.305 144.294C125.251 144.496 125.078 144.682 124.846 144.624ZM117.807 145.573C118.172 145.345 118.693 145.684 118.636 146.101C118.618 146.522 118.049 146.767 117.728 146.482C117.418 146.258 117.465 145.745 117.807 145.573ZM123.379 145.814C123.542 145.402 124.202 145.388 124.387 145.79C124.571 146.103 124.345 146.491 124.019 146.597C123.586 146.677 123.176 146.216 123.379 145.814ZM120.328 146.574C120.324 146.218 120.652 145.954 120.995 145.93C121.223 145.975 121.471 146.07 121.568 146.296C121.75 146.608 121.588 147.036 121.261 147.179C121.111 147.262 120.932 147.231 120.769 147.221C120.519 147.101 120.308 146.863 120.328 146.574ZM114.578 147.091C114.912 146.889 115.362 147.256 115.235 147.613C115.166 147.922 114.745 148.047 114.504 147.85C114.247 147.666 114.287 147.223 114.579 147.091L114.578 147.091ZM126.925 147.09C127.207 146.874 127.675 147.122 127.64 147.473C127.66 147.793 127.255 148.036 126.975 147.871C126.666 147.733 126.634 147.265 126.925 147.091V147.09ZM121.945 147.728C122.411 147.563 122.966 147.76 123.232 148.171C123.583 148.671 123.397 149.433 122.851 149.72C122.287 150.06 121.463 149.773 121.254 149.152C121.018 148.597 121.363 147.902 121.944 147.728H121.945ZM119.205 147.783C119.722 147.543 120.419 147.744 120.669 148.264C120.963 148.771 120.736 149.477 120.21 149.739C119.683 150.034 118.94 149.81 118.686 149.266C118.4 148.74 118.654 148.025 119.205 147.783ZM116.462 148.705C116.502 148.377 116.816 148.163 117.133 148.141C117.299 148.158 117.454 148.231 117.572 148.348C117.691 148.465 117.766 148.618 117.786 148.783C117.763 149.121 117.499 149.449 117.136 149.448C116.736 149.482 116.386 149.09 116.462 148.705ZM124.564 148.213C124.974 147.978 125.543 148.319 125.525 148.783C125.553 149.274 124.923 149.62 124.515 149.332C124.09 149.092 124.123 148.417 124.564 148.213ZM118.091 149.943C118.57 149.813 119.119 150.035 119.353 150.469C119.611 150.905 119.506 151.511 119.106 151.832C118.592 152.302 117.646 152.113 117.373 151.472C117.059 150.885 117.441 150.097 118.09 149.942L118.091 149.943ZM123.286 149.941C123.752 149.809 124.3 149.986 124.55 150.403C124.882 150.881 124.723 151.594 124.231 151.902C123.713 152.26 122.914 152.072 122.629 151.513C122.284 150.934 122.631 150.117 123.286 149.941ZM115.006 150.485C115.42 150.331 115.879 150.781 115.711 151.185C115.609 151.552 115.082 151.689 114.81 151.417C114.491 151.162 114.609 150.596 115.006 150.485ZM126.233 151.072C126.225 150.907 126.283 150.745 126.394 150.622C126.505 150.5 126.659 150.425 126.824 150.416C127.108 150.461 127.384 150.686 127.361 150.99C127.387 151.391 126.896 151.663 126.548 151.475C126.385 151.393 126.302 151.229 126.233 151.072ZM112.97 150.685C113.219 150.577 113.527 150.79 113.47 151.062C113.457 151.37 112.994 151.489 112.825 151.231C112.675 151.052 112.765 150.777 112.97 150.684V150.685ZM128.682 150.678C128.857 150.556 129.139 150.643 129.208 150.845C129.326 151.066 129.11 151.367 128.858 151.33C128.504 151.362 128.39 150.832 128.682 150.678ZM119.444 152.158C120.1 151.99 120.805 152.528 120.809 153.193C120.851 153.864 120.157 154.459 119.486 154.304C118.967 154.222 118.56 153.73 118.577 153.214C118.576 152.721 118.954 152.262 119.444 152.158ZM122.041 152.157C122.706 151.974 123.432 152.521 123.421 153.201C123.457 153.859 122.784 154.435 122.127 154.303C121.508 154.225 121.052 153.557 121.225 152.966C121.312 152.573 121.646 152.254 122.041 152.156V152.157ZM117.034 152.566C117.494 152.488 117.926 152.993 117.739 153.424C117.603 153.883 116.925 154.006 116.625 153.632C116.274 153.272 116.536 152.615 117.034 152.566ZM124.649 152.586C125.06 152.416 125.564 152.766 125.533 153.205C125.549 153.687 124.927 154.02 124.525 153.738C124.07 153.485 124.153 152.74 124.649 152.586ZM126.778 154.686C126.617 154.391 126.909 154 127.243 154.055C127.408 154.052 127.524 154.18 127.63 154.288C127.651 154.463 127.688 154.672 127.54 154.806C127.34 155.056 126.886 154.984 126.778 154.686ZM114.577 154.137C114.888 153.934 115.336 154.237 115.265 154.594C115.228 154.912 114.823 155.092 114.556 154.912C114.27 154.75 114.28 154.285 114.577 154.137ZM120.721 154.799C121.129 154.623 121.648 154.972 121.609 155.413C121.639 155.9 120.997 156.238 120.599 155.945C120.157 155.694 120.231 154.954 120.721 154.799ZM117.876 155.452C118.222 155.273 118.687 155.583 118.656 155.965C118.666 156.279 118.356 156.546 118.041 156.499C117.781 156.494 117.611 156.264 117.527 156.046C117.532 155.808 117.631 155.543 117.876 155.453V155.452ZM123.64 155.458C123.997 155.241 124.504 155.553 124.471 155.961C124.48 156.388 123.907 156.661 123.574 156.381C123.253 156.161 123.292 155.633 123.64 155.458ZM124.643 157.896C124.484 157.66 124.671 157.376 124.928 157.322C125.136 157.363 125.356 157.517 125.311 157.753C125.281 158.073 124.806 158.17 124.643 157.897V157.896ZM116.685 157.691C116.748 157.504 116.901 157.318 117.125 157.367C117.451 157.39 117.548 157.874 117.262 158.023C117.006 158.194 116.707 157.96 116.685 157.691ZM120.525 157.906C120.587 157.629 120.951 157.495 121.191 157.642C121.35 157.709 121.396 157.883 121.437 158.032C121.416 158.109 121.396 158.186 121.377 158.264C121.279 158.378 121.152 158.493 120.988 158.489C120.685 158.524 120.41 158.186 120.524 157.906H120.525Z" fill="black"/>
<path d="M120.793 143.545C121.153 143.359 121.591 143.788 121.401 144.141C121.289 144.429 120.868 144.505 120.654 144.286C120.427 144.076 120.501 143.659 120.793 143.544V143.545ZM116.927 143.954C117.145 143.866 117.422 144.062 117.4 144.297C117.422 144.55 117.107 144.738 116.884 144.617C116.59 144.505 116.623 144.034 116.927 143.954ZM124.846 144.624C124.504 144.583 124.45 144.055 124.778 143.949C125.033 143.827 125.267 144.056 125.305 144.294C125.251 144.496 125.078 144.682 124.846 144.624ZM117.807 145.573C118.172 145.345 118.693 145.684 118.636 146.101C118.618 146.522 118.049 146.767 117.728 146.482C117.418 146.258 117.465 145.745 117.807 145.573ZM123.379 145.814C123.542 145.402 124.202 145.388 124.387 145.79C124.571 146.103 124.345 146.491 124.019 146.597C123.586 146.677 123.176 146.216 123.379 145.814ZM120.328 146.574C120.324 146.218 120.652 145.954 120.995 145.93C121.223 145.975 121.471 146.07 121.568 146.296C121.75 146.608 121.588 147.036 121.261 147.179C121.111 147.262 120.932 147.231 120.769 147.221C120.519 147.101 120.308 146.863 120.328 146.574ZM114.578 147.091C114.912 146.889 115.362 147.256 115.235 147.613C115.166 147.922 114.745 148.047 114.504 147.85C114.247 147.666 114.287 147.223 114.579 147.091L114.578 147.091ZM126.925 147.09C127.207 146.874 127.675 147.122 127.64 147.473C127.66 147.793 127.255 148.036 126.975 147.871C126.666 147.733 126.634 147.265 126.925 147.091V147.09ZM121.945 147.728C122.411 147.563 122.966 147.76 123.232 148.171C123.583 148.671 123.397 149.433 122.851 149.72C122.287 150.06 121.463 149.773 121.254 149.152C121.018 148.597 121.363 147.902 121.944 147.728H121.945ZM119.205 147.783C119.722 147.543 120.419 147.744 120.669 148.264C120.963 148.771 120.736 149.477 120.21 149.739C119.683 150.034 118.94 149.81 118.686 149.266C118.4 148.74 118.654 148.025 119.205 147.783ZM116.462 148.705C116.502 148.377 116.816 148.163 117.133 148.141C117.299 148.158 117.454 148.231 117.572 148.348C117.691 148.465 117.766 148.618 117.786 148.783C117.763 149.121 117.499 149.449 117.136 149.448C116.736 149.482 116.386 149.09 116.462 148.705ZM124.564 148.213C124.974 147.978 125.543 148.319 125.525 148.783C125.553 149.274 124.923 149.62 124.515 149.332C124.09 149.092 124.123 148.417 124.564 148.213ZM118.091 149.943C118.57 149.813 119.119 150.035 119.353 150.469C119.611 150.905 119.506 151.511 119.106 151.832C118.592 152.302 117.646 152.113 117.373 151.472C117.059 150.885 117.441 150.097 118.09 149.942L118.091 149.943ZM123.286 149.941C123.752 149.809 124.3 149.986 124.55 150.403C124.882 150.881 124.723 151.594 124.231 151.902C123.713 152.26 122.914 152.072 122.629 151.513C122.284 150.934 122.631 150.117 123.286 149.941ZM115.006 150.485C115.42 150.331 115.879 150.781 115.711 151.185C115.609 151.552 115.082 151.689 114.81 151.417C114.491 151.162 114.609 150.596 115.006 150.485ZM126.233 151.072C126.225 150.907 126.283 150.745 126.394 150.622C126.505 150.5 126.659 150.425 126.824 150.416C127.108 150.461 127.384 150.686 127.361 150.99C127.387 151.391 126.896 151.663 126.548 151.475C126.385 151.393 126.302 151.229 126.233 151.072ZM112.97 150.685C113.219 150.577 113.527 150.79 113.47 151.062C113.457 151.37 112.994 151.489 112.825 151.231C112.675 151.052 112.765 150.777 112.97 150.684V150.685ZM128.682 150.678C128.857 150.556 129.139 150.643 129.208 150.845C129.326 151.066 129.11 151.367 128.858 151.33C128.504 151.362 128.39 150.832 128.682 150.678ZM119.444 152.158C120.1 151.99 120.805 152.528 120.809 153.193C120.851 153.864 120.157 154.459 119.486 154.304C118.967 154.222 118.56 153.73 118.577 153.214C118.576 152.721 118.954 152.262 119.444 152.158ZM122.041 152.157C122.706 151.974 123.432 152.521 123.421 153.201C123.457 153.859 122.784 154.435 122.127 154.303C121.508 154.225 121.052 153.557 121.225 152.966C121.312 152.573 121.646 152.254 122.041 152.156V152.157ZM117.034 152.566C117.494 152.488 117.926 152.993 117.739 153.424C117.603 153.883 116.925 154.006 116.625 153.632C116.274 153.272 116.536 152.615 117.034 152.566ZM124.649 152.586C125.06 152.416 125.564 152.766 125.533 153.205C125.549 153.687 124.927 154.02 124.525 153.738C124.07 153.485 124.153 152.74 124.649 152.586ZM126.778 154.686C126.617 154.391 126.909 154 127.243 154.055C127.408 154.052 127.524 154.18 127.63 154.288C127.651 154.463 127.688 154.672 127.54 154.806C127.34 155.056 126.886 154.984 126.778 154.686ZM114.577 154.137C114.888 153.934 115.336 154.237 115.265 154.594C115.228 154.912 114.823 155.092 114.556 154.912C114.27 154.75 114.28 154.285 114.577 154.137ZM120.721 154.799C121.129 154.623 121.648 154.972 121.609 155.413C121.639 155.9 120.997 156.238 120.599 155.945C120.157 155.694 120.231 154.954 120.721 154.799ZM117.876 155.452C118.222 155.273 118.687 155.583 118.656 155.965C118.666 156.279 118.356 156.546 118.041 156.499C117.781 156.494 117.611 156.264 117.527 156.046C117.532 155.808 117.631 155.543 117.876 155.453V155.452ZM123.64 155.458C123.997 155.241 124.504 155.553 124.471 155.961C124.48 156.388 123.907 156.661 123.574 156.381C123.253 156.161 123.292 155.633 123.64 155.458ZM124.643 157.896C124.484 157.66 124.671 157.376 124.928 157.322C125.136 157.363 125.356 157.517 125.311 157.753C125.281 158.073 124.806 158.17 124.643 157.897V157.896ZM116.685 157.691C116.748 157.504 116.901 157.318 117.125 157.367C117.451 157.39 117.548 157.874 117.262 158.023C117.006 158.194 116.707 157.96 116.685 157.691ZM120.525 157.906C120.587 157.629 120.951 157.495 121.191 157.642C121.35 157.709 121.396 157.883 121.437 158.032C121.416 158.109 121.396 158.186 121.377 158.264C121.279 158.378 121.152 158.493 120.988 158.489C120.685 158.524 120.41 158.186 120.524 157.906H120.525Z" fill="white"/>
</g>
<path d="M328.641 51.9029C327.038 58.3315 320.526 62.2438 314.096 60.6407C307.669 59.0381 303.756 52.5265 305.359 46.0984C306.962 39.669 313.473 35.7564 319.902 37.3591C326.331 38.9618 330.244 45.474 328.641 51.903L328.641 51.9029H328.641Z" fill="#F3BA2F"/>
<path fill-rule="evenodd" clip-rule="evenodd" d="M317 44.616L313.893 47.7233L313.893 47.7232L312.085 45.9152L317 41L321.918 45.9167L320.11 47.7247L317 44.616ZM310.808 47.1914L309 48.9997L310.808 50.8074L312.616 48.9993L310.808 47.1914ZM313.894 50.2769L317.002 53.384L320.111 50.2754L321.92 52.0824L321.919 52.0834L317.002 57L312.086 52.0848L312.083 52.0822L313.894 50.2769ZM323.194 47.1928L321.385 49.0008L323.194 50.8088L325.002 49.0007L323.194 47.1928Z" fill="white"/>
<path d="M318.835 48.9993H318.836L317.001 47.1647L315.645 48.5203V48.5203L315.489 48.6761L315.168 48.9974L315.166 48.9999L315.168 49.0026L317.001 50.8358L318.836 49.0012L318.837 49.0002L318.835 48.9993" fill="white"/>
<defs>
<clipPath id="clip0_6992_665">
<rect width="269" height="195.863" fill="white" transform="translate(57)"/>
</clipPath>
<clipPath id="clip1_6992_665">
<rect width="58.0539" height="58.0539" fill="white" transform="translate(162.973 64.9312)"/>
</clipPath>
<clipPath id="clip2_6992_665">
<rect width="58.0539" height="58.0539" fill="white" transform="translate(162.97 64.9326)"/>
</clipPath>
<clipPath id="clip3_6992_665">
<rect width="58.0539" height="58.0539" fill="white" transform="translate(162.966 64.9341)"/>
</clipPath>
<clipPath id="clip4_6992_665">
<rect width="24" height="24" fill="white" transform="translate(235 16)"/>
</clipPath>
<clipPath id="clip5_6992_665">
<rect width="24" height="24" fill="white" transform="translate(256 117)"/>
</clipPath>
<clipPath id="clip6_6992_665">
<rect width="24" height="24" fill="white" transform="translate(109 139)"/>
</clipPath>
</defs>
</svg>
