<svg width="676" height="237" viewBox="0 0 676 237" fill="none" xmlns="http://www.w3.org/2000/svg">
<g clip-path="url(#clip0_1_2655)">
<path d="M4.92606 165.386C4.37645 165.758 4.2311 166.506 4.60143 167.057C4.97177 167.608 5.71753 167.755 6.26715 167.383L4.92606 165.386ZM159.997 62.0195L160.673 61.0248C160.267 60.7473 159.733 60.7459 159.326 61.0211L159.997 62.0195ZM299.209 157.238L298.533 158.232C298.988 158.545 299.597 158.504 300.008 158.135L299.209 157.238ZM381.32 83.6275V82.4237C381.025 82.4237 380.741 82.5328 380.521 82.7294L381.32 83.6275ZM514.441 83.6275V84.8313C514.653 84.8313 514.861 84.7743 515.045 84.6676L514.441 83.6275ZM657.514 -0.0012207L643.658 0.0539962L650.633 12.0645L657.514 -0.0012207ZM6.26715 167.383L160.667 63.0179L159.326 61.0211L4.92606 165.386L6.26715 167.383ZM159.321 63.0141L298.533 158.232L299.885 156.244L160.673 61.0248L159.321 63.0141ZM300.008 158.135L382.12 84.5247L380.521 82.7294L298.409 156.34L300.008 158.135ZM381.32 84.8313H514.441V82.4237H381.32V84.8313ZM515.045 84.6676L648.787 6.49335L647.578 4.41306L513.837 82.5874L515.045 84.6676Z" fill="url(#paint0_linear_1_2655)"/>
<path d="M4.82795 244.547C4.31898 244.973 4.25047 245.732 4.67493 246.242C5.09939 246.753 5.8561 246.822 6.36507 246.396L4.82795 244.547ZM183.409 96.7115L183.677 95.5382C183.312 95.4547 182.929 95.5462 182.641 95.787L183.409 96.7115ZM297.806 122.918L297.539 124.091C297.863 124.166 298.204 124.102 298.479 123.915L297.806 122.918ZM422.151 38.518L422.757 37.479C422.358 37.245 421.861 37.2613 421.478 37.521L422.151 38.518ZM539.035 107.117L538.429 108.156C538.693 108.312 539.008 108.36 539.306 108.29L539.035 107.117ZM669.597 76.7123L656.341 72.6642L659.474 86.2045L669.597 76.7123ZM6.36507 246.396L184.178 97.636L182.641 95.787L4.82795 244.547L6.36507 246.396ZM183.142 97.8856L297.539 124.091L298.073 121.745L183.677 95.5382L183.142 97.8856ZM298.479 123.915L422.823 39.515L421.478 37.521L297.134 121.921L298.479 123.915ZM421.545 39.5571L538.429 108.156L539.641 106.078L422.757 37.479L421.545 39.5571ZM539.306 108.29L659.348 80.3347L658.805 77.9896L538.764 105.945L539.306 108.29Z" fill="url(#paint1_linear_1_2655)" fill-opacity="0.5"/>
<path d="M5.68284 206.165C5.0218 206.116 4.44731 206.616 4.39964 207.278C4.35199 207.941 4.84922 208.518 5.51024 208.566L5.68284 206.165ZM184.397 220.297L184.31 221.498C184.469 221.509 184.628 221.489 184.778 221.439L184.397 220.297ZM293.481 183.598L293.548 182.395C293.396 182.387 293.244 182.407 293.1 182.456L293.481 183.598ZM442.397 191.807L442.331 193.009C442.5 193.018 442.669 192.991 442.828 192.93L442.397 191.807ZM542.817 153.039L543.247 154.163C543.432 154.091 543.595 153.976 543.725 153.826L542.817 153.039ZM633.597 47.6555L620.509 52.2194L630.993 61.3084L633.597 47.6555ZM5.51024 208.566L184.31 221.498L184.483 219.097L5.68284 206.165L5.51024 208.566ZM184.778 221.439L293.863 184.739L293.1 182.456L184.015 219.156L184.778 221.439ZM293.416 184.799L442.331 193.009L442.462 190.605L293.548 182.395L293.416 184.799ZM442.828 192.93L543.247 154.163L542.385 151.915L441.965 190.683L442.828 192.93ZM543.725 153.826L627.443 56.6402L625.627 55.0659L541.909 152.252L543.725 153.826Z" fill="url(#paint2_linear_1_2655)" fill-opacity="0.3"/>
<path d="M0 30.3293H675.585" stroke="#C0D6EA" stroke-opacity="0.15" stroke-width="0.695858"/>
<path d="M0 107.862H675.585" stroke="#C0D6EA" stroke-opacity="0.15" stroke-width="0.695858"/>
<path d="M0 177.553H675.585" stroke="#C0D6EA" stroke-opacity="0.15" stroke-width="0.695858"/>
</g>
<defs>
<linearGradient id="paint0_linear_1_2655" x1="331.556" y1="14.3724" x2="331.556" y2="166.385" gradientUnits="userSpaceOnUse">
<stop stop-color="#1CE8AB"/>
<stop offset="1" stop-color="#70A5FE"/>
</linearGradient>
<linearGradient id="paint1_linear_1_2655" x1="330.136" y1="38.9034" x2="327.507" y2="245.524" gradientUnits="userSpaceOnUse">
<stop stop-color="#1CE8AB"/>
<stop offset="1" stop-color="#70A5FE"/>
</linearGradient>
<linearGradient id="paint2_linear_1_2655" x1="322.084" y1="46.5246" x2="322.601" y2="245.845" gradientUnits="userSpaceOnUse">
<stop stop-color="#1CE8AB"/>
<stop offset="1" stop-color="#70A5FE"/>
</linearGradient>
<clipPath id="clip0_1_2655">
<rect width="676" height="252" fill="white"/>
</clipPath>
</defs>
</svg>
