<svg width="308" height="179" viewBox="0 0 308 179" fill="none" xmlns="http://www.w3.org/2000/svg">
<rect width="305" height="178.156" rx="5.20669" fill="white"/>
<path d="M27.6729 142.022H293.56" stroke="#E4E4E4" stroke-opacity="0.2" stroke-width="0.520669" stroke-linecap="square"/>
<path d="M27.6729 120.76H293.56" stroke="#E4E4E4" stroke-opacity="0.2" stroke-width="0.520669" stroke-linecap="square"/>
<path d="M27.6729 99.4971H293.56" stroke="#E4E4E4" stroke-opacity="0.2" stroke-width="0.520669" stroke-linecap="square"/>
<path d="M27.6729 78.2285H293.56" stroke="#E4E4E4" stroke-opacity="0.2" stroke-width="0.520669" stroke-linecap="square"/>
<path d="M27.6729 56.969H293.56" stroke="#E4E4E4" stroke-opacity="0.2" stroke-width="0.520669" stroke-linecap="square"/>
<path d="M27.6729 35.7034H293.56" stroke="#E4E4E4" stroke-opacity="0.2" stroke-width="0.520669" stroke-linecap="square"/>
<path d="M27.6729 134.859L63.9489 128.517L101.261 99.6888L138.056 110.643L175.368 81.239L213.199 69.7079L247.92 90.1014L276.941 57.0236L293.56 51.8555" stroke="#27B3AA" stroke-width="1.04134" stroke-linecap="round" stroke-linejoin="round"/>
<g filter="url(#filter0_dd_1_2617)">
<rect x="208.537" y="66.5723" width="9.04374" height="9.04374" rx="4.52187" fill="#27B3AA"/>
<rect x="209.058" y="67.0929" width="8.0024" height="8.0024" rx="4.0012" stroke="white" stroke-width="1.04134"/>
</g>
<g filter="url(#filter1_dd_1_2617)">
<rect x="269.653" y="54.0242" width="9.04374" height="9.04374" rx="4.52187" fill="#27B3AA"/>
<rect x="270.174" y="54.5448" width="8.0024" height="8.0024" rx="4.0012" stroke="white" stroke-width="1.04134"/>
</g>
<g filter="url(#filter2_dd_1_2617)">
<rect x="242.487" y="86.646" width="9.04374" height="9.04374" rx="4.52187" fill="#27B3AA"/>
<rect x="243.008" y="87.1667" width="8.0024" height="8.0024" rx="4.0012" stroke="white" stroke-width="1.04134"/>
</g>
<g filter="url(#filter3_dd_1_2617)">
<rect x="169.832" y="76.6077" width="9.04374" height="9.04374" rx="4.52187" fill="#27B3AA"/>
<rect x="170.353" y="77.1283" width="8.0024" height="8.0024" rx="4.0012" stroke="white" stroke-width="1.04134"/>
</g>
<g filter="url(#filter4_dd_1_2617)">
<rect x="131.122" y="106.72" width="9.04374" height="9.04374" rx="4.52187" fill="#27B3AA"/>
<rect x="131.642" y="107.241" width="8.0024" height="8.0024" rx="4.0012" stroke="white" stroke-width="1.04134"/>
</g>
<g filter="url(#filter5_dd_1_2617)">
<rect x="97.1709" y="95.8438" width="9.04374" height="9.04374" rx="4.52187" fill="#27B3AA"/>
<rect x="97.6916" y="96.3644" width="8.0024" height="8.0024" rx="4.0012" stroke="white" stroke-width="1.04134"/>
</g>
<g filter="url(#filter6_dd_1_2617)">
<rect x="57.7856" y="123.447" width="9.04374" height="9.04374" rx="4.52187" fill="#27B3AA"/>
<rect x="58.3063" y="123.967" width="8.0024" height="8.0024" rx="4.0012" stroke="white" stroke-width="1.04134"/>
</g>
<path d="M29.2068 159.635V159.268L30.5817 157.763C30.743 157.587 30.8759 157.434 30.9803 157.304C31.0847 157.172 31.162 157.049 31.2122 156.934C31.2637 156.817 31.2894 156.695 31.2894 156.567C31.2894 156.421 31.2542 156.294 31.1837 156.187C31.1145 156.08 31.0196 155.997 30.8989 155.939C30.7783 155.881 30.6427 155.852 30.4922 155.852C30.3322 155.852 30.1925 155.885 30.0732 155.951C29.9552 156.016 29.8637 156.108 29.7986 156.226C29.7349 156.344 29.703 156.482 29.703 156.641H29.223C29.223 156.397 29.2793 156.182 29.3919 155.998C29.5044 155.814 29.6576 155.67 29.8515 155.567C30.0468 155.464 30.2657 155.412 30.5084 155.412C30.7525 155.412 30.9688 155.464 31.1572 155.567C31.3457 155.67 31.4935 155.809 31.6006 155.984C31.7077 156.159 31.7613 156.353 31.7613 156.567C31.7613 156.721 31.7335 156.871 31.6779 157.017C31.6237 157.162 31.5288 157.324 31.3932 157.503C31.2589 157.681 31.0725 157.898 30.8339 158.154L29.8983 159.155V159.187H31.8345V159.635H29.2068ZM34.0331 159.691C33.7267 159.691 33.4657 159.608 33.2501 159.441C33.0345 159.273 32.8698 159.03 32.7559 158.711C32.642 158.391 32.585 158.005 32.585 157.552C32.585 157.102 32.642 156.717 32.7559 156.399C32.8711 156.079 33.0365 155.835 33.2521 155.666C33.4691 155.497 33.7294 155.412 34.0331 155.412C34.3368 155.412 34.5965 155.497 34.8121 155.666C35.029 155.835 35.1945 156.079 35.3084 156.399C35.4236 156.717 35.4812 157.102 35.4812 157.552C35.4812 158.005 35.4243 158.391 35.3104 158.711C35.1965 159.03 35.0318 159.273 34.8162 159.441C34.6006 159.608 34.3396 159.691 34.0331 159.691ZM34.0331 159.244C34.3368 159.244 34.5728 159.098 34.7409 158.805C34.909 158.512 34.9931 158.094 34.9931 157.552C34.9931 157.191 34.9545 156.884 34.8772 156.631C34.8012 156.377 34.6914 156.184 34.5477 156.051C34.4053 155.918 34.2338 155.852 34.0331 155.852C33.7321 155.852 33.4969 156 33.3274 156.297C33.1579 156.593 33.0731 157.011 33.0731 157.552C33.0731 157.913 33.1111 158.219 33.187 158.471C33.263 158.723 33.3721 158.915 33.5145 159.047C33.6582 159.178 33.8311 159.244 34.0331 159.244ZM37.7185 155.469V159.635H37.2141V155.998H37.1897L36.1727 156.673V156.161L37.2141 155.469H37.7185ZM40.2995 159.691C40.1286 159.689 39.9578 159.656 39.7869 159.594C39.6161 159.531 39.4601 159.426 39.3191 159.279C39.1781 159.129 39.0649 158.928 38.9795 158.675C38.8941 158.42 38.8513 158.1 38.8513 157.715C38.8513 157.346 38.8859 157.019 38.9551 156.734C39.0242 156.448 39.1246 156.207 39.2561 156.012C39.3876 155.816 39.5462 155.666 39.732 155.565C39.9191 155.463 40.13 155.412 40.3645 155.412C40.5978 155.412 40.8052 155.459 40.9869 155.553C41.1699 155.645 41.3191 155.774 41.4343 155.939C41.5496 156.104 41.6242 156.295 41.6581 156.511H41.1618C41.1157 156.323 41.0262 156.168 40.8933 156.045C40.7605 155.921 40.5842 155.86 40.3645 155.86C40.0418 155.86 39.7876 156 39.6018 156.281C39.4174 156.561 39.3246 156.955 39.3232 157.462H39.3557C39.4317 157.347 39.5218 157.249 39.6262 157.167C39.732 157.085 39.8486 157.021 39.9761 156.976C40.1035 156.932 40.2384 156.909 40.3808 156.909C40.6194 156.909 40.8377 156.969 41.0357 157.088C41.2337 157.206 41.3923 157.369 41.5116 157.578C41.631 157.786 41.6906 158.024 41.6906 158.292C41.6906 158.55 41.633 158.786 41.5177 159C41.4025 159.213 41.2405 159.382 41.0316 159.508C40.8242 159.633 40.5801 159.694 40.2995 159.691ZM40.2995 159.244C40.4703 159.244 40.6235 159.201 40.7591 159.116C40.8961 159.03 41.0038 158.916 41.0825 158.772C41.1625 158.628 41.2025 158.468 41.2025 158.292C41.2025 158.12 41.1638 157.963 41.0866 157.822C41.0106 157.68 40.9055 157.567 40.7713 157.483C40.6384 157.399 40.4866 157.357 40.3157 157.357C40.1869 157.357 40.0669 157.382 39.9557 157.434C39.8445 157.484 39.7469 157.553 39.6629 157.641C39.5801 157.729 39.5151 157.83 39.4676 157.944C39.4201 158.057 39.3964 158.176 39.3964 158.3C39.3964 158.466 39.4351 158.62 39.5123 158.764C39.591 158.908 39.6981 159.024 39.8337 159.112C39.9706 159.2 40.1259 159.244 40.2995 159.244Z" fill="#999999"/>
<path d="M73.4203 159.634V159.268L74.7952 157.763C74.9565 157.587 75.0894 157.434 75.1938 157.303C75.2982 157.172 75.3755 157.049 75.4257 156.933C75.4772 156.817 75.503 156.695 75.503 156.567C75.503 156.421 75.4677 156.294 75.3972 156.187C75.328 156.08 75.2331 155.997 75.1125 155.939C74.9918 155.88 74.8562 155.851 74.7057 155.851C74.5457 155.851 74.406 155.885 74.2867 155.951C74.1687 156.016 74.0772 156.108 74.0121 156.226C73.9484 156.343 73.9165 156.482 73.9165 156.64H73.4366C73.4366 156.396 73.4928 156.182 73.6054 155.998C73.7179 155.813 73.8711 155.67 74.065 155.567C74.2603 155.464 74.4793 155.412 74.722 155.412C74.966 155.412 75.1823 155.464 75.3708 155.567C75.5592 155.67 75.707 155.809 75.8141 155.983C75.9213 156.158 75.9748 156.353 75.9748 156.567C75.9748 156.72 75.947 156.87 75.8914 157.017C75.8372 157.162 75.7423 157.324 75.6067 157.503C75.4725 157.68 75.286 157.897 75.0474 158.154L74.1118 159.154V159.187H76.048V159.634H73.4203ZM78.2466 159.691C77.9402 159.691 77.6792 159.608 77.4636 159.441C77.248 159.273 77.0833 159.03 76.9694 158.711C76.8555 158.391 76.7985 158.004 76.7985 157.552C76.7985 157.101 76.8555 156.717 76.9694 156.398C77.0846 156.078 77.25 155.834 77.4656 155.666C77.6826 155.497 77.9429 155.412 78.2466 155.412C78.5504 155.412 78.81 155.497 79.0256 155.666C79.2426 155.834 79.408 156.078 79.5219 156.398C79.6371 156.717 79.6948 157.101 79.6948 157.552C79.6948 158.004 79.6378 158.391 79.5239 158.711C79.41 159.03 79.2453 159.273 79.0297 159.441C78.8141 159.608 78.5531 159.691 78.2466 159.691ZM78.2466 159.244C78.5504 159.244 78.7863 159.097 78.9544 158.804C79.1226 158.512 79.2066 158.094 79.2066 157.552C79.2066 157.191 79.168 156.884 79.0907 156.63C79.0148 156.377 78.9049 156.183 78.7612 156.051C78.6188 155.918 78.4473 155.851 78.2466 155.851C77.9456 155.851 77.7104 156 77.5409 156.297C77.3714 156.592 77.2867 157.011 77.2867 157.552C77.2867 157.912 77.3246 158.219 77.4006 158.471C77.4765 158.723 77.5856 158.915 77.728 159.046C77.8717 159.178 78.0446 159.244 78.2466 159.244ZM81.932 155.469V159.634H81.4276V155.998H81.4032L80.3863 156.673V156.16L81.4276 155.469H81.932ZM83.2601 159.634L85.1231 155.949V155.916H82.9754V155.469H85.6438V155.941L83.7889 159.634H83.2601Z" fill="#999999"/>
<path d="M117.355 159.634V159.268L118.73 157.763C118.891 157.587 119.024 157.434 119.128 157.303C119.233 157.172 119.31 157.049 119.36 156.933C119.412 156.817 119.437 156.695 119.437 156.567C119.437 156.421 119.402 156.294 119.332 156.187C119.262 156.08 119.167 155.997 119.047 155.939C118.926 155.88 118.791 155.851 118.64 155.851C118.48 155.851 118.34 155.885 118.221 155.951C118.103 156.016 118.012 156.108 117.946 156.226C117.883 156.343 117.851 156.482 117.851 156.64H117.371C117.371 156.396 117.427 156.182 117.54 155.998C117.652 155.813 117.805 155.67 117.999 155.567C118.195 155.464 118.414 155.412 118.656 155.412C118.9 155.412 119.117 155.464 119.305 155.567C119.494 155.67 119.641 155.809 119.748 155.983C119.856 156.158 119.909 156.353 119.909 156.567C119.909 156.72 119.881 156.87 119.826 157.017C119.772 157.162 119.677 157.324 119.541 157.503C119.407 157.68 119.22 157.897 118.982 158.154L118.046 159.154V159.187H119.982V159.634H117.355ZM122.181 159.691C121.875 159.691 121.614 159.608 121.398 159.441C121.182 159.273 121.018 159.03 120.904 158.711C120.79 158.391 120.733 158.004 120.733 157.552C120.733 157.101 120.79 156.717 120.904 156.398C121.019 156.078 121.184 155.834 121.4 155.666C121.617 155.497 121.877 155.412 122.181 155.412C122.485 155.412 122.744 155.497 122.96 155.666C123.177 155.834 123.342 156.078 123.456 156.398C123.571 156.717 123.629 157.101 123.629 157.552C123.629 158.004 123.572 158.391 123.458 158.711C123.344 159.03 123.18 159.273 122.964 159.441C122.748 159.608 122.487 159.691 122.181 159.691ZM122.181 159.244C122.485 159.244 122.721 159.097 122.889 158.804C123.057 158.512 123.141 158.094 123.141 157.552C123.141 157.191 123.102 156.884 123.025 156.63C122.949 156.377 122.839 156.183 122.696 156.051C122.553 155.918 122.382 155.851 122.181 155.851C121.88 155.851 121.645 156 121.475 156.297C121.306 156.592 121.221 157.011 121.221 157.552C121.221 157.912 121.259 158.219 121.335 158.471C121.411 158.723 121.52 158.915 121.662 159.046C121.806 159.178 121.979 159.244 122.181 159.244ZM125.866 155.469V159.634H125.362V155.998H125.338L124.321 156.673V156.16L125.362 155.469H125.866ZM128.399 159.691C128.119 159.691 127.872 159.642 127.658 159.543C127.445 159.442 127.279 159.305 127.16 159.13C127.041 158.954 126.982 158.753 126.983 158.528C126.982 158.352 127.016 158.189 127.087 158.04C127.157 157.889 127.253 157.764 127.375 157.663C127.499 157.562 127.636 157.497 127.788 157.47V157.446C127.589 157.394 127.43 157.282 127.312 157.11C127.194 156.937 127.136 156.739 127.138 156.518C127.136 156.307 127.19 156.118 127.298 155.951C127.407 155.784 127.556 155.653 127.746 155.556C127.937 155.46 128.154 155.412 128.399 155.412C128.64 155.412 128.855 155.46 129.045 155.556C129.235 155.653 129.384 155.784 129.493 155.951C129.603 156.118 129.658 156.307 129.659 156.518C129.658 156.739 129.598 156.937 129.478 157.11C129.361 157.282 129.204 157.394 129.009 157.446V157.47C129.159 157.497 129.295 157.562 129.415 157.663C129.536 157.764 129.632 157.889 129.704 158.04C129.776 158.189 129.813 158.352 129.814 158.528C129.813 158.753 129.752 158.954 129.631 159.13C129.512 159.305 129.346 159.442 129.133 159.543C128.921 159.642 128.676 159.691 128.399 159.691ZM128.399 159.244C128.587 159.244 128.75 159.213 128.887 159.152C129.024 159.091 129.129 159.005 129.204 158.894C129.278 158.783 129.316 158.653 129.318 158.503C129.316 158.346 129.276 158.207 129.196 158.087C129.116 157.966 129.007 157.871 128.868 157.802C128.731 157.733 128.575 157.698 128.399 157.698C128.221 157.698 128.062 157.733 127.923 157.802C127.784 157.871 127.675 157.966 127.595 158.087C127.516 158.207 127.478 158.346 127.479 158.503C127.478 158.653 127.514 158.783 127.587 158.894C127.662 159.005 127.768 159.091 127.906 159.152C128.045 159.213 128.209 159.244 128.399 159.244ZM128.399 157.267C128.548 157.267 128.68 157.237 128.795 157.177C128.912 157.118 129.003 157.034 129.07 156.927C129.136 156.82 129.17 156.695 129.171 156.551C129.17 156.41 129.137 156.287 129.072 156.183C129.007 156.077 128.916 155.996 128.801 155.939C128.686 155.88 128.552 155.851 128.399 155.851C128.243 155.851 128.106 155.88 127.99 155.939C127.873 155.996 127.783 156.077 127.719 156.183C127.655 156.287 127.624 156.41 127.626 156.551C127.624 156.695 127.656 156.82 127.721 156.927C127.788 157.034 127.879 157.118 127.996 157.177C128.112 157.237 128.247 157.267 128.399 157.267Z" fill="#999999"/>
<path d="M161.395 159.634V159.268L162.77 157.763C162.931 157.587 163.064 157.434 163.168 157.303C163.273 157.172 163.35 157.049 163.4 156.933C163.452 156.817 163.477 156.695 163.477 156.567C163.477 156.421 163.442 156.294 163.372 156.187C163.303 156.08 163.208 155.997 163.087 155.939C162.966 155.88 162.831 155.851 162.68 155.851C162.52 155.851 162.381 155.885 162.261 155.951C162.143 156.016 162.052 156.108 161.987 156.226C161.923 156.343 161.891 156.482 161.891 156.64H161.411C161.411 156.396 161.467 156.182 161.58 155.998C161.692 155.813 161.846 155.67 162.039 155.567C162.235 155.464 162.454 155.412 162.696 155.412C162.94 155.412 163.157 155.464 163.345 155.567C163.534 155.67 163.681 155.809 163.789 155.983C163.896 156.158 163.949 156.353 163.949 156.567C163.949 156.72 163.921 156.87 163.866 157.017C163.812 157.162 163.717 157.324 163.581 157.503C163.447 157.68 163.26 157.897 163.022 158.154L162.086 159.154V159.187H164.023V159.634H161.395ZM166.221 159.691C165.915 159.691 165.654 159.608 165.438 159.441C165.222 159.273 165.058 159.03 164.944 158.711C164.83 158.391 164.773 158.004 164.773 157.552C164.773 157.101 164.83 156.717 164.944 156.398C165.059 156.078 165.225 155.834 165.44 155.666C165.657 155.497 165.917 155.412 166.221 155.412C166.525 155.412 166.784 155.497 167 155.666C167.217 155.834 167.382 156.078 167.496 156.398C167.612 156.717 167.669 157.101 167.669 157.552C167.669 158.004 167.612 158.391 167.498 158.711C167.384 159.03 167.22 159.273 167.004 159.441C166.789 159.608 166.528 159.691 166.221 159.691ZM166.221 159.244C166.525 159.244 166.761 159.097 166.929 158.804C167.097 158.512 167.181 158.094 167.181 157.552C167.181 157.191 167.142 156.884 167.065 156.63C166.989 156.377 166.879 156.183 166.736 156.051C166.593 155.918 166.422 155.851 166.221 155.851C165.92 155.851 165.685 156 165.515 156.297C165.346 156.592 165.261 157.011 165.261 157.552C165.261 157.912 165.299 158.219 165.375 158.471C165.451 158.723 165.56 158.915 165.702 159.046C165.846 159.178 166.019 159.244 166.221 159.244ZM169.906 155.469V159.634H169.402V155.998H169.378L168.361 156.673V156.16L169.402 155.469H169.906ZM172.43 155.412C172.601 155.413 172.772 155.446 172.943 155.51C173.114 155.573 173.27 155.679 173.411 155.827C173.552 155.973 173.665 156.173 173.75 156.427C173.836 156.68 173.879 156.998 173.879 157.381C173.879 157.751 173.843 158.08 173.773 158.367C173.704 158.653 173.603 158.895 173.472 159.091C173.342 159.288 173.183 159.437 172.996 159.539C172.81 159.64 172.6 159.691 172.365 159.691C172.132 159.691 171.924 159.645 171.741 159.553C171.559 159.459 171.41 159.33 171.294 159.164C171.178 158.998 171.104 158.804 171.072 158.585H171.568C171.613 158.776 171.702 158.934 171.835 159.059C171.969 159.182 172.146 159.244 172.365 159.244C172.687 159.244 172.94 159.103 173.126 158.823C173.313 158.542 173.407 158.145 173.407 157.633H173.374C173.298 157.747 173.208 157.845 173.104 157.928C172.999 158.011 172.883 158.074 172.756 158.119C172.628 158.164 172.493 158.186 172.349 158.186C172.111 158.186 171.892 158.127 171.692 158.009C171.494 157.89 171.336 157.727 171.216 157.519C171.098 157.31 171.039 157.072 171.039 156.803C171.039 156.548 171.096 156.315 171.21 156.103C171.325 155.891 171.487 155.721 171.694 155.595C171.903 155.469 172.148 155.408 172.43 155.412ZM172.43 155.859C172.26 155.859 172.106 155.902 171.969 155.988C171.833 156.072 171.725 156.186 171.645 156.329C171.567 156.472 171.527 156.63 171.527 156.803C171.527 156.977 171.565 157.135 171.641 157.277C171.719 157.418 171.824 157.531 171.957 157.615C172.091 157.697 172.243 157.739 172.414 157.739C172.543 157.739 172.663 157.714 172.774 157.663C172.885 157.612 172.982 157.542 173.065 157.454C173.149 157.364 173.215 157.263 173.262 157.151C173.31 157.037 173.334 156.918 173.334 156.795C173.334 156.632 173.294 156.48 173.216 156.337C173.138 156.195 173.031 156.08 172.894 155.992C172.759 155.903 172.604 155.859 172.43 155.859Z" fill="#999999"/>
<path d="M205.357 159.507V159.141L206.731 157.636C206.893 157.459 207.026 157.306 207.13 157.176C207.235 157.045 207.312 156.921 207.362 156.806C207.414 156.689 207.439 156.567 207.439 156.44C207.439 156.293 207.404 156.167 207.334 156.059C207.264 155.952 207.169 155.87 207.049 155.811C206.928 155.753 206.793 155.724 206.642 155.724C206.482 155.724 206.342 155.757 206.223 155.824C206.105 155.889 206.014 155.98 205.948 156.098C205.885 156.216 205.853 156.354 205.853 156.513H205.373C205.373 156.269 205.429 156.055 205.542 155.87C205.654 155.686 205.807 155.542 206.001 155.439C206.197 155.336 206.416 155.285 206.658 155.285C206.902 155.285 207.119 155.336 207.307 155.439C207.496 155.542 207.643 155.681 207.75 155.856C207.858 156.031 207.911 156.226 207.911 156.44C207.911 156.593 207.883 156.743 207.828 156.889C207.774 157.034 207.679 157.196 207.543 157.375C207.409 157.553 207.222 157.77 206.984 158.026L206.048 159.027V159.059H207.984V159.507H205.357ZM210.183 159.564C209.877 159.564 209.616 159.48 209.4 159.314C209.184 159.145 209.02 158.902 208.906 158.583C208.792 158.263 208.735 157.877 208.735 157.424C208.735 156.974 208.792 156.59 208.906 156.271C209.021 155.951 209.186 155.707 209.402 155.539C209.619 155.369 209.879 155.285 210.183 155.285C210.487 155.285 210.746 155.369 210.962 155.539C211.179 155.707 211.344 155.951 211.458 156.271C211.573 156.59 211.631 156.974 211.631 157.424C211.631 157.877 211.574 158.263 211.46 158.583C211.346 158.902 211.182 159.145 210.966 159.314C210.75 159.48 210.489 159.564 210.183 159.564ZM210.183 159.116C210.487 159.116 210.723 158.97 210.891 158.677C211.059 158.384 211.143 157.967 211.143 157.424C211.143 157.063 211.104 156.756 211.027 156.503C210.951 156.249 210.841 156.056 210.698 155.923C210.555 155.79 210.384 155.724 210.183 155.724C209.882 155.724 209.647 155.872 209.477 156.169C209.308 156.465 209.223 156.883 209.223 157.424C209.223 157.785 209.261 158.091 209.337 158.343C209.413 158.596 209.522 158.788 209.664 158.919C209.808 159.051 209.981 159.116 210.183 159.116ZM212.404 159.507V159.141L213.779 157.636C213.94 157.459 214.073 157.306 214.177 157.176C214.282 157.045 214.359 156.921 214.409 156.806C214.461 156.689 214.487 156.567 214.487 156.44C214.487 156.293 214.451 156.167 214.381 156.059C214.312 155.952 214.217 155.87 214.096 155.811C213.975 155.753 213.84 155.724 213.689 155.724C213.529 155.724 213.39 155.757 213.27 155.824C213.152 155.889 213.061 155.98 212.996 156.098C212.932 156.216 212.9 156.354 212.9 156.513H212.42C212.42 156.269 212.476 156.055 212.589 155.87C212.702 155.686 212.855 155.542 213.049 155.439C213.244 155.336 213.463 155.285 213.706 155.285C213.95 155.285 214.166 155.336 214.354 155.439C214.543 155.542 214.691 155.681 214.798 155.856C214.905 156.031 214.958 156.226 214.958 156.44C214.958 156.593 214.931 156.743 214.875 156.889C214.821 157.034 214.726 157.196 214.59 157.375C214.456 157.553 214.27 157.77 214.031 158.026L213.095 159.027V159.059H215.032V159.507H212.404ZM217.23 159.564C216.924 159.564 216.663 159.48 216.447 159.314C216.232 159.145 216.067 158.902 215.953 158.583C215.839 158.263 215.782 157.877 215.782 157.424C215.782 156.974 215.839 156.59 215.953 156.271C216.068 155.951 216.234 155.707 216.449 155.539C216.666 155.369 216.927 155.285 217.23 155.285C217.534 155.285 217.794 155.369 218.009 155.539C218.226 155.707 218.392 155.951 218.506 156.271C218.621 156.59 218.678 156.974 218.678 157.424C218.678 157.877 218.621 158.263 218.508 158.583C218.394 158.902 218.229 159.145 218.013 159.314C217.798 159.48 217.537 159.564 217.23 159.564ZM217.23 159.116C217.534 159.116 217.77 158.97 217.938 158.677C218.106 158.384 218.19 157.967 218.19 157.424C218.19 157.063 218.152 156.756 218.074 156.503C217.998 156.249 217.889 156.056 217.745 155.923C217.602 155.79 217.431 155.724 217.23 155.724C216.929 155.724 216.694 155.872 216.525 156.169C216.355 156.465 216.27 156.883 216.27 157.424C216.27 157.785 216.308 158.091 216.384 158.343C216.46 158.596 216.569 158.788 216.712 158.919C216.855 159.051 217.028 159.116 217.23 159.116Z" fill="#999999"/>
<path d="M249.78 159.634V159.268L251.154 157.763C251.316 157.587 251.449 157.434 251.553 157.303C251.657 157.172 251.735 157.049 251.785 156.933C251.836 156.817 251.862 156.695 251.862 156.567C251.862 156.421 251.827 156.294 251.756 156.187C251.687 156.08 251.592 155.997 251.472 155.939C251.351 155.88 251.215 155.851 251.065 155.851C250.905 155.851 250.765 155.885 250.646 155.951C250.528 156.016 250.437 156.108 250.371 156.226C250.308 156.343 250.276 156.482 250.276 156.64H249.796C249.796 156.396 249.852 156.182 249.965 155.998C250.077 155.813 250.23 155.67 250.424 155.567C250.62 155.464 250.839 155.412 251.081 155.412C251.325 155.412 251.542 155.464 251.73 155.567C251.919 155.67 252.066 155.809 252.173 155.983C252.281 156.158 252.334 156.353 252.334 156.567C252.334 156.72 252.306 156.87 252.251 157.017C252.196 157.162 252.102 157.324 251.966 157.503C251.832 157.68 251.645 157.897 251.407 158.154L250.471 159.154V159.187H252.407V159.634H249.78ZM254.606 159.691C254.299 159.691 254.038 159.608 253.823 159.441C253.607 159.273 253.443 159.03 253.329 158.711C253.215 158.391 253.158 158.004 253.158 157.552C253.158 157.101 253.215 156.717 253.329 156.398C253.444 156.078 253.609 155.834 253.825 155.666C254.042 155.497 254.302 155.412 254.606 155.412C254.91 155.412 255.169 155.497 255.385 155.666C255.602 155.834 255.767 156.078 255.881 156.398C255.996 156.717 256.054 157.101 256.054 157.552C256.054 158.004 255.997 158.391 255.883 158.711C255.769 159.03 255.605 159.273 255.389 159.441C255.173 159.608 254.912 159.691 254.606 159.691ZM254.606 159.244C254.91 159.244 255.146 159.097 255.314 158.804C255.482 158.512 255.566 158.094 255.566 157.552C255.566 157.191 255.527 156.884 255.45 156.63C255.374 156.377 255.264 156.183 255.12 156.051C254.978 155.918 254.807 155.851 254.606 155.851C254.305 155.851 254.07 156 253.9 156.297C253.731 156.592 253.646 157.011 253.646 157.552C253.646 157.912 253.684 158.219 253.76 158.471C253.836 158.723 253.945 158.915 254.087 159.046C254.231 159.178 254.404 159.244 254.606 159.244ZM256.827 159.634V159.268L258.202 157.763C258.363 157.587 258.496 157.434 258.6 157.303C258.705 157.172 258.782 157.049 258.832 156.933C258.884 156.817 258.91 156.695 258.91 156.567C258.91 156.421 258.874 156.294 258.804 156.187C258.735 156.08 258.64 155.997 258.519 155.939C258.398 155.88 258.263 155.851 258.112 155.851C257.952 155.851 257.813 155.885 257.693 155.951C257.575 156.016 257.484 156.108 257.419 156.226C257.355 156.343 257.323 156.482 257.323 156.64H256.843C256.843 156.396 256.899 156.182 257.012 155.998C257.125 155.813 257.278 155.67 257.472 155.567C257.667 155.464 257.886 155.412 258.129 155.412C258.373 155.412 258.589 155.464 258.777 155.567C258.966 155.67 259.114 155.809 259.221 155.983C259.328 156.158 259.381 156.353 259.381 156.567C259.381 156.72 259.354 156.87 259.298 157.017C259.244 157.162 259.149 157.324 259.013 157.503C258.879 157.68 258.693 157.897 258.454 158.154L257.518 159.154V159.187H259.455V159.634H256.827ZM260.295 159.634V159.268L261.67 157.763C261.831 157.587 261.964 157.434 262.068 157.303C262.173 157.172 262.25 157.049 262.3 156.933C262.352 156.817 262.377 156.695 262.377 156.567C262.377 156.421 262.342 156.294 262.272 156.187C262.202 156.08 262.107 155.997 261.987 155.939C261.866 155.88 261.731 155.851 261.58 155.851C261.42 155.851 261.28 155.885 261.161 155.951C261.043 156.016 260.952 156.108 260.886 156.226C260.823 156.343 260.791 156.482 260.791 156.64H260.311C260.311 156.396 260.367 156.182 260.48 155.998C260.592 155.813 260.745 155.67 260.939 155.567C261.135 155.464 261.354 155.412 261.596 155.412C261.84 155.412 262.057 155.464 262.245 155.567C262.434 155.67 262.581 155.809 262.688 155.983C262.796 156.158 262.849 156.353 262.849 156.567C262.849 156.72 262.821 156.87 262.766 157.017C262.712 157.162 262.617 157.324 262.481 157.503C262.347 157.68 262.16 157.897 261.922 158.154L260.986 159.154V159.187H262.922V159.634H260.295Z" fill="#999999"/>
<path d="M293.783 159.634V159.268L295.158 157.763C295.32 157.587 295.452 157.434 295.557 157.303C295.661 157.172 295.739 157.049 295.789 156.933C295.84 156.817 295.866 156.695 295.866 156.567C295.866 156.421 295.831 156.294 295.76 156.187C295.691 156.08 295.596 155.997 295.476 155.939C295.355 155.88 295.219 155.851 295.069 155.851C294.909 155.851 294.769 155.885 294.65 155.951C294.532 156.016 294.44 156.108 294.375 156.226C294.311 156.343 294.28 156.482 294.28 156.64H293.8C293.8 156.396 293.856 156.182 293.968 155.998C294.081 155.813 294.234 155.67 294.428 155.567C294.623 155.464 294.842 155.412 295.085 155.412C295.329 155.412 295.545 155.464 295.734 155.567C295.922 155.67 296.07 155.809 296.177 155.983C296.284 156.158 296.338 156.353 296.338 156.567C296.338 156.72 296.31 156.87 296.254 157.017C296.2 157.162 296.105 157.324 295.97 157.503C295.836 157.68 295.649 157.897 295.41 158.154L294.475 159.154V159.187H296.411V159.634H293.783ZM298.61 159.691C298.303 159.691 298.042 159.608 297.827 159.441C297.611 159.273 297.446 159.03 297.332 158.711C297.219 158.391 297.162 158.004 297.162 157.552C297.162 157.101 297.219 156.717 297.332 156.398C297.448 156.078 297.613 155.834 297.829 155.666C298.046 155.497 298.306 155.412 298.61 155.412C298.913 155.412 299.173 155.497 299.389 155.666C299.606 155.834 299.771 156.078 299.885 156.398C300 156.717 300.058 157.101 300.058 157.552C300.058 158.004 300.001 158.391 299.887 158.711C299.773 159.03 299.608 159.273 299.393 159.441C299.177 159.608 298.916 159.691 298.61 159.691ZM298.61 159.244C298.913 159.244 299.149 159.097 299.317 158.804C299.486 158.512 299.57 158.094 299.57 157.552C299.57 157.191 299.531 156.884 299.454 156.63C299.378 156.377 299.268 156.183 299.124 156.051C298.982 155.918 298.81 155.851 298.61 155.851C298.309 155.851 298.073 156 297.904 156.297C297.734 156.592 297.65 157.011 297.65 157.552C297.65 157.912 297.688 158.219 297.764 158.471C297.84 158.723 297.949 158.915 298.091 159.046C298.235 159.178 298.408 159.244 298.61 159.244ZM300.831 159.634V159.268L302.206 157.763C302.367 157.587 302.5 157.434 302.604 157.303C302.709 157.172 302.786 157.049 302.836 156.933C302.888 156.817 302.913 156.695 302.913 156.567C302.913 156.421 302.878 156.294 302.808 156.187C302.738 156.08 302.644 155.997 302.523 155.939C302.402 155.88 302.267 155.851 302.116 155.851C301.956 155.851 301.816 155.885 301.697 155.951C301.579 156.016 301.488 156.108 301.423 156.226C301.359 156.343 301.327 156.482 301.327 156.64H300.847C300.847 156.396 300.903 156.182 301.016 155.998C301.128 155.813 301.282 155.67 301.475 155.567C301.671 155.464 301.89 155.412 302.132 155.412C302.376 155.412 302.593 155.464 302.781 155.567C302.97 155.67 303.117 155.809 303.225 155.983C303.332 156.158 303.385 156.353 303.385 156.567C303.385 156.72 303.357 156.87 303.302 157.017C303.248 157.162 303.153 157.324 303.017 157.503C302.883 157.68 302.696 157.897 302.458 158.154L301.522 159.154V159.187H303.458V159.634H300.831ZM304.111 158.78V158.365L305.942 155.469H306.243V156.112H306.039L304.656 158.3V158.333H307.121V158.78H304.111ZM306.072 159.634V158.654V158.461V155.469H306.552V159.634H306.072Z" fill="#999999"/>
<path d="M15.232 145.624C14.9255 145.624 14.6645 145.54 14.4489 145.373C14.2333 145.205 14.0686 144.962 13.9547 144.643C13.8408 144.323 13.7838 143.937 13.7838 143.484C13.7838 143.034 13.8408 142.649 13.9547 142.331C14.0699 142.011 14.2354 141.767 14.451 141.599C14.6679 141.429 14.9282 141.344 15.232 141.344C15.5357 141.344 15.7953 141.429 16.0109 141.599C16.2279 141.767 16.3933 142.011 16.5072 142.331C16.6224 142.649 16.6801 143.034 16.6801 143.484C16.6801 143.937 16.6231 144.323 16.5092 144.643C16.3953 144.962 16.2306 145.205 16.015 145.373C15.7994 145.54 15.5384 145.624 15.232 145.624ZM15.232 145.176C15.5357 145.176 15.7716 145.03 15.9397 144.737C16.1079 144.444 16.1919 144.026 16.1919 143.484C16.1919 143.123 16.1533 142.816 16.076 142.563C16.0001 142.309 15.8903 142.116 15.7465 141.983C15.6042 141.85 15.4326 141.784 15.232 141.784C14.9309 141.784 14.6957 141.932 14.5262 142.229C14.3567 142.525 14.272 142.943 14.272 143.484C14.272 143.845 14.3099 144.151 14.3859 144.403C14.4618 144.655 14.571 144.847 14.7133 144.979C14.8571 145.11 15.0299 145.176 15.232 145.176Z" fill="#999999"/>
<path d="M10.4503 124.266C10.2795 124.263 10.1086 124.23 9.9378 124.168C9.76696 124.106 9.61103 124.001 9.47001 123.853C9.329 123.704 9.21578 123.502 9.13036 123.249C9.04494 122.994 9.00222 122.674 9.00222 122.289C9.00222 121.92 9.0368 121.593 9.10595 121.308C9.1751 121.022 9.27544 120.782 9.40696 120.586C9.53849 120.39 9.69713 120.241 9.88289 120.139C10.07 120.037 10.2808 119.986 10.5154 119.986C10.7486 119.986 10.9561 120.033 11.1378 120.127C11.3208 120.219 11.47 120.348 11.5852 120.513C11.7005 120.679 11.7751 120.869 11.809 121.085H11.3127C11.2666 120.898 11.1771 120.742 11.0442 120.619C10.9113 120.496 10.7351 120.434 10.5154 120.434C10.1927 120.434 9.93848 120.574 9.75272 120.855C9.56832 121.136 9.47544 121.529 9.47408 122.037H9.50662C9.58255 121.921 9.67272 121.823 9.77713 121.742C9.88289 121.659 9.99949 121.595 10.127 121.55C10.2544 121.506 10.3893 121.483 10.5317 121.483C10.7703 121.483 10.9886 121.543 11.1866 121.662C11.3846 121.78 11.5432 121.944 11.6625 122.153C11.7818 122.36 11.8415 122.598 11.8415 122.866C11.8415 123.124 11.7839 123.36 11.6686 123.574C11.5534 123.787 11.3913 123.957 11.1825 124.083C10.9751 124.207 10.731 124.268 10.4503 124.266ZM10.4503 123.818C10.6212 123.818 10.7744 123.776 10.91 123.69C11.0469 123.605 11.1547 123.49 11.2334 123.346C11.3134 123.203 11.3534 123.043 11.3534 122.866C11.3534 122.694 11.3147 122.538 11.2374 122.397C11.1615 122.254 11.0564 122.141 10.9222 122.057C10.7893 121.973 10.6374 121.931 10.4666 121.931C10.3378 121.931 10.2178 121.957 10.1066 122.008C9.99543 122.058 9.8978 122.127 9.81374 122.216C9.73102 122.304 9.66594 122.405 9.61848 122.519C9.57103 122.631 9.5473 122.75 9.5473 122.875C9.5473 123.04 9.58594 123.195 9.66323 123.338C9.74187 123.482 9.84899 123.598 9.98458 123.686C10.1215 123.774 10.2768 123.818 10.4503 123.818ZM12.8035 124.241C12.7032 124.241 12.6171 124.205 12.5452 124.133C12.4733 124.062 12.4374 123.976 12.4374 123.875C12.4374 123.775 12.4733 123.689 12.5452 123.617C12.6171 123.545 12.7032 123.509 12.8035 123.509C12.9038 123.509 12.9899 123.545 13.0618 123.617C13.1337 123.689 13.1696 123.775 13.1696 123.875C13.1696 123.942 13.1527 124.003 13.1188 124.058C13.0862 124.114 13.0422 124.159 12.9866 124.192C12.9323 124.225 12.8713 124.241 12.8035 124.241ZM15.236 124.266C14.9296 124.266 14.6686 124.182 14.453 124.016C14.2374 123.847 14.0726 123.604 13.9587 123.285C13.8448 122.965 13.7879 122.579 13.7879 122.126C13.7879 121.676 13.8448 121.292 13.9587 120.973C14.074 120.653 14.2394 120.409 14.455 120.241C14.672 120.071 14.9323 119.986 15.236 119.986C15.5397 119.986 15.7994 120.071 16.015 120.241C16.2319 120.409 16.3973 120.653 16.5112 120.973C16.6265 121.292 16.6841 121.676 16.6841 122.126C16.6841 122.579 16.6272 122.965 16.5133 123.285C16.3994 123.604 16.2346 123.847 16.019 124.016C15.8035 124.182 15.5424 124.266 15.236 124.266ZM15.236 123.818C15.5397 123.818 15.7757 123.672 15.9438 123.379C16.1119 123.086 16.196 122.668 16.196 122.126C16.196 121.765 16.1574 121.458 16.0801 121.205C16.0041 120.951 15.8943 120.758 15.7506 120.625C15.6082 120.492 15.4367 120.426 15.236 120.426C14.935 120.426 14.6997 120.574 14.5303 120.871C14.3608 121.167 14.276 121.585 14.276 122.126C14.276 122.487 14.314 122.793 14.3899 123.045C14.4659 123.298 14.575 123.489 14.7174 123.621C14.8611 123.752 15.034 123.818 15.236 123.818Z" fill="#999999"/>
<path d="M10.4839 103.362C10.313 103.359 10.1422 103.327 9.97136 103.264C9.80051 103.202 9.64459 103.097 9.50357 102.949C9.36256 102.8 9.24934 102.599 9.16392 102.345C9.07849 102.09 9.03578 101.77 9.03578 101.385C9.03578 101.016 9.07036 100.69 9.13951 100.405C9.20866 100.119 9.309 99.8781 9.44052 99.6829C9.57204 99.4863 9.73069 99.3371 9.91644 99.2354C10.1036 99.1337 10.3144 99.0829 10.549 99.0829C10.7822 99.0829 10.9896 99.1297 11.1713 99.2232C11.3544 99.3154 11.5035 99.4442 11.6188 99.6096C11.734 99.7751 11.8086 99.9656 11.8425 100.181H11.3462C11.3001 99.994 11.2107 99.8388 11.0778 99.7154C10.9449 99.592 10.7686 99.5303 10.549 99.5303C10.2263 99.5303 9.97204 99.6707 9.78628 99.9513C9.60187 100.232 9.50899 100.626 9.50764 101.133H9.54018C9.61611 101.018 9.70628 100.919 9.81068 100.838C9.91644 100.755 10.0331 100.692 10.1605 100.647C10.288 100.602 10.4229 100.58 10.5652 100.58C10.8039 100.58 11.0222 100.639 11.2201 100.759C11.4181 100.877 11.5768 101.04 11.6961 101.249C11.8154 101.456 11.8751 101.694 11.8751 101.963C11.8751 102.22 11.8174 102.456 11.7022 102.671C11.5869 102.883 11.4249 103.053 11.2161 103.179C11.0086 103.304 10.7646 103.365 10.4839 103.362ZM10.4839 102.915C10.6547 102.915 10.808 102.872 10.9435 102.787C11.0805 102.701 11.1883 102.587 11.2669 102.443C11.3469 102.299 11.3869 102.139 11.3869 101.963C11.3869 101.791 11.3483 101.634 11.271 101.493C11.1951 101.351 11.09 101.237 10.9557 101.153C10.8229 101.069 10.671 101.027 10.5002 101.027C10.3714 101.027 10.2514 101.053 10.1402 101.105C10.029 101.155 9.93136 101.224 9.84729 101.312C9.76458 101.4 9.6995 101.501 9.65204 101.615C9.60459 101.728 9.58086 101.846 9.58086 101.971C9.58086 102.136 9.6195 102.291 9.69679 102.435C9.77543 102.578 9.88255 102.694 10.0181 102.782C10.1551 102.871 10.3103 102.915 10.4839 102.915ZM12.8371 103.338C12.7367 103.338 12.6506 103.302 12.5788 103.23C12.5069 103.158 12.471 103.072 12.471 102.972C12.471 102.871 12.5069 102.785 12.5788 102.713C12.6506 102.641 12.7367 102.606 12.8371 102.606C12.9374 102.606 13.0235 102.641 13.0954 102.713C13.1672 102.785 13.2032 102.871 13.2032 102.972C13.2032 103.038 13.1862 103.099 13.1523 103.155C13.1198 103.21 13.0757 103.255 13.0201 103.289C12.9659 103.321 12.9049 103.338 12.8371 103.338ZM15.2741 103.362C15.0355 103.362 14.8206 103.315 14.6294 103.22C14.4382 103.125 14.285 102.995 14.1698 102.829C14.0545 102.664 13.9915 102.475 13.9806 102.264H14.4687C14.4877 102.452 14.5731 102.608 14.725 102.732C14.8782 102.854 15.0613 102.915 15.2741 102.915C15.445 102.915 15.5969 102.875 15.7297 102.795C15.864 102.715 15.969 102.605 16.045 102.465C16.1223 102.324 16.1609 102.165 16.1609 101.987C16.1609 101.806 16.1209 101.644 16.0409 101.501C15.9623 101.357 15.8538 101.244 15.7155 101.161C15.5772 101.079 15.4192 101.037 15.2416 101.035C15.1141 101.034 14.9833 101.054 14.8491 101.094C14.7148 101.134 14.6043 101.185 14.5175 101.247L14.0457 101.19L14.2979 99.1398H16.4619V99.5873H14.7209L14.5745 100.816H14.5989C14.6843 100.748 14.7914 100.692 14.9203 100.647C15.0491 100.602 15.1833 100.58 15.323 100.58C15.5779 100.58 15.805 100.641 16.0043 100.763C16.205 100.884 16.3623 101.049 16.4762 101.259C16.5914 101.469 16.649 101.709 16.649 101.979C16.649 102.245 16.5894 102.482 16.4701 102.691C16.3521 102.898 16.1894 103.062 15.9819 103.183C15.7745 103.302 15.5385 103.362 15.2741 103.362Z" fill="#999999"/>
<path d="M9.9917 81.9438L11.8547 78.2585V78.2259H9.70696V77.7785H12.3754V78.2504L10.5205 81.9438H9.9917ZM13.1416 81.3744L13.1091 81.594C13.086 81.7486 13.0508 81.914 13.0033 82.0903C12.9572 82.2666 12.9091 82.4327 12.8589 82.5886C12.8088 82.7445 12.7674 82.8686 12.7349 82.9608H12.3688C12.3864 82.874 12.4095 82.7594 12.4379 82.6171C12.4664 82.4747 12.4949 82.3154 12.5233 82.1391C12.5532 81.9642 12.5776 81.7852 12.5966 81.6022L12.621 81.3744H13.1416ZM15.236 82.0008C14.9296 82.0008 14.6686 81.9174 14.453 81.7506C14.2374 81.5825 14.0726 81.3391 13.9587 81.0205C13.8448 80.7005 13.7879 80.314 13.7879 79.8612C13.7879 79.411 13.8448 79.0266 13.9587 78.708C14.074 78.388 14.2394 78.1439 14.455 77.9758C14.672 77.8063 14.9323 77.7216 15.236 77.7216C15.5397 77.7216 15.7994 77.8063 16.015 77.9758C16.2319 78.1439 16.3973 78.388 16.5112 78.708C16.6265 79.0266 16.6841 79.411 16.6841 79.8612C16.6841 80.314 16.6272 80.7005 16.5133 81.0205C16.3994 81.3391 16.2346 81.5825 16.019 81.7506C15.8035 81.9174 15.5424 82.0008 15.236 82.0008ZM15.236 81.5533C15.5397 81.5533 15.7757 81.4069 15.9438 81.114C16.1119 80.8212 16.196 80.4035 16.196 79.8612C16.196 79.5005 16.1573 79.1934 16.0801 78.9398C16.0041 78.6863 15.8943 78.4931 15.7506 78.3602C15.6082 78.2273 15.4367 78.1609 15.236 78.1609C14.935 78.1609 14.6997 78.3093 14.5303 78.6063C14.3608 78.9019 14.276 79.3202 14.276 79.8612C14.276 80.2218 14.314 80.5283 14.3899 80.7805C14.4659 81.0327 14.575 81.2245 14.7174 81.3561C14.8611 81.4876 15.034 81.5533 15.236 81.5533Z" fill="#999999"/>
<path d="M10.0253 60.5828L11.8883 56.8974V56.8649H9.74052V56.4174H12.4089V56.8893L10.5541 60.5828H10.0253ZM13.1752 60.0133L13.1427 60.2329C13.1196 60.3875 13.0844 60.5529 13.0369 60.7292C12.9908 60.9055 12.9427 61.0716 12.8925 61.2275C12.8423 61.3834 12.801 61.5075 12.7684 61.5997H12.4023C12.42 61.5129 12.443 61.3983 12.4715 61.256C12.5 61.1136 12.5284 60.9543 12.5569 60.778C12.5867 60.6031 12.6111 60.4241 12.6301 60.2411L12.6545 60.0133H13.1752ZM15.2741 60.6397C15.0355 60.6397 14.8206 60.5923 14.6294 60.4973C14.4382 60.4024 14.285 60.2723 14.1698 60.1068C14.0545 59.9414 13.9915 59.7529 13.9806 59.5414H14.4687C14.4877 59.7299 14.5731 59.8858 14.725 60.0092C14.8782 60.1312 15.0613 60.1923 15.2741 60.1923C15.445 60.1923 15.5969 60.1523 15.7297 60.0723C15.864 59.9923 15.969 59.8824 16.045 59.7428C16.1223 59.6018 16.1609 59.4424 16.1609 59.2648C16.1609 59.0831 16.1209 58.9211 16.0409 58.7787C15.9623 58.635 15.8538 58.5218 15.7155 58.4391C15.5772 58.3564 15.4192 58.3143 15.2416 58.313C15.1141 58.3116 14.9833 58.3313 14.8491 58.372C14.7148 58.4113 14.6043 58.4621 14.5175 58.5245L14.0457 58.4675L14.2979 56.4174H16.4619V56.8649H14.7209L14.5745 58.0933H14.5989C14.6843 58.0255 14.7914 57.9693 14.9203 57.9245C15.0491 57.8798 15.1833 57.8574 15.323 57.8574C15.5779 57.8574 15.805 57.9184 16.0043 58.0404C16.205 58.1611 16.3623 58.3265 16.4762 58.5367C16.5914 58.7469 16.649 58.9869 16.649 59.2567C16.649 59.5224 16.5894 59.7597 16.4701 59.9685C16.3521 60.176 16.1894 60.3401 15.9819 60.4607C15.7745 60.5801 15.5385 60.6397 15.2741 60.6397Z" fill="#999999"/>
<path d="M10.3791 40.1868C10.0998 40.1868 9.85306 40.1373 9.63882 40.0384C9.42594 39.938 9.25985 39.8004 9.14053 39.6255C9.02121 39.4492 8.96222 39.2485 8.96358 39.0235C8.96222 38.8472 8.9968 38.6845 9.06731 38.5353C9.13781 38.3848 9.23408 38.2594 9.35612 38.1591C9.4795 38.0574 9.61713 37.993 9.76899 37.9659V37.9414C9.56967 37.8899 9.41103 37.7781 9.29307 37.6059C9.1751 37.4323 9.1168 37.235 9.11815 37.014C9.1168 36.8025 9.17036 36.6133 9.27883 36.4466C9.3873 36.2798 9.53645 36.1483 9.72628 36.052C9.91746 35.9557 10.1351 35.9076 10.3791 35.9076C10.6205 35.9076 10.8361 35.9557 11.0259 36.052C11.2157 36.1483 11.3649 36.2798 11.4734 36.4466C11.5832 36.6133 11.6388 36.8025 11.6401 37.014C11.6388 37.235 11.5784 37.4323 11.4591 37.6059C11.3412 37.7781 11.1846 37.8899 10.9893 37.9414V37.9659C11.1398 37.993 11.2754 38.0574 11.3961 38.1591C11.5168 38.2594 11.613 38.3848 11.6849 38.5353C11.7568 38.6845 11.7934 38.8472 11.7947 39.0235C11.7934 39.2485 11.7323 39.4492 11.6117 39.6255C11.4923 39.8004 11.3262 39.938 11.1134 40.0384C10.9019 40.1373 10.6571 40.1868 10.3791 40.1868ZM10.3791 39.7394C10.5676 39.7394 10.7303 39.7089 10.8673 39.6479C11.0042 39.5868 11.11 39.5007 11.1846 39.3896C11.2591 39.2784 11.2971 39.1482 11.2985 38.9991C11.2971 38.8418 11.2564 38.7028 11.1764 38.5821C11.0964 38.4614 10.9873 38.3665 10.849 38.2974C10.712 38.2282 10.5554 38.1936 10.3791 38.1936C10.2015 38.1936 10.0429 38.2282 9.90322 38.2974C9.76492 38.3665 9.65577 38.4614 9.57577 38.5821C9.49713 38.7028 9.45849 38.8418 9.45984 38.9991C9.45849 39.1482 9.49442 39.2784 9.56764 39.3896C9.64221 39.5007 9.74865 39.5868 9.88695 39.6479C10.0253 39.7089 10.1893 39.7394 10.3791 39.7394ZM10.3791 37.7625C10.5283 37.7625 10.6605 37.7326 10.7758 37.673C10.8924 37.6133 10.9839 37.5299 11.0503 37.4228C11.1168 37.3157 11.1507 37.1903 11.152 37.0465C11.1507 36.9055 11.1174 36.7828 11.0524 36.6784C10.9873 36.5727 10.8971 36.4913 10.7819 36.4344C10.6666 36.3761 10.5324 36.3469 10.3791 36.3469C10.2232 36.3469 10.0869 36.3761 9.97034 36.4344C9.85373 36.4913 9.76357 36.5727 9.69984 36.6784C9.63611 36.7828 9.60492 36.9055 9.60628 37.0465C9.60492 37.1903 9.63679 37.3157 9.70187 37.4228C9.76831 37.5299 9.85984 37.6133 9.97644 37.673C10.0931 37.7326 10.2273 37.7625 10.3791 37.7625ZM12.8035 40.1624C12.7032 40.1624 12.6171 40.1265 12.5452 40.0546C12.4733 39.9828 12.4374 39.8967 12.4374 39.7963C12.4374 39.696 12.4733 39.6099 12.5452 39.538C12.6171 39.4662 12.7032 39.4302 12.8035 39.4302C12.9038 39.4302 12.9899 39.4662 13.0618 39.538C13.1337 39.6099 13.1696 39.696 13.1696 39.7963C13.1696 39.8628 13.1527 39.9238 13.1188 39.9794C13.0862 40.035 13.0422 40.0797 12.9866 40.1136C12.9323 40.1462 12.8713 40.1624 12.8035 40.1624ZM15.236 40.1868C14.9296 40.1868 14.6686 40.1034 14.453 39.9367C14.2374 39.7685 14.0726 39.5251 13.9587 39.2065C13.8448 38.8865 13.7879 38.5001 13.7879 38.0472C13.7879 37.597 13.8448 37.2126 13.9587 36.894C14.074 36.574 14.2394 36.33 14.455 36.1618C14.672 35.9923 14.9323 35.9076 15.236 35.9076C15.5397 35.9076 15.7994 35.9923 16.015 36.1618C16.2319 36.33 16.3973 36.574 16.5112 36.894C16.6265 37.2126 16.6841 37.597 16.6841 38.0472C16.6841 38.5001 16.6272 38.8865 16.5133 39.2065C16.3994 39.5251 16.2346 39.7685 16.019 39.9367C15.8035 40.1034 15.5424 40.1868 15.236 40.1868ZM15.236 39.7394C15.5397 39.7394 15.7757 39.5929 15.9438 39.3001C16.1119 39.0072 16.196 38.5896 16.196 38.0472C16.196 37.6865 16.1573 37.3794 16.0801 37.1259C16.0041 36.8723 15.8943 36.6791 15.7506 36.5462C15.6082 36.4133 15.4367 36.3469 15.236 36.3469C14.935 36.3469 14.6997 36.4954 14.5303 36.7923C14.3608 37.0879 14.276 37.5062 14.276 38.0472C14.276 38.4079 14.314 38.7143 14.3899 38.9665C14.4659 39.2187 14.575 39.4106 14.7174 39.5421C14.8611 39.6736 15.034 39.7394 15.236 39.7394Z" fill="#999999"/>
<defs>
<filter id="filter0_dd_1_2617" x="206.454" y="65.5309" width="13.2093" height="13.2091" filterUnits="userSpaceOnUse" color-interpolation-filters="sRGB">
<feFlood flood-opacity="0" result="BackgroundImageFix"/>
<feColorMatrix in="SourceAlpha" type="matrix" values="0 0 0 0 0 0 0 0 0 0 0 0 0 0 0 0 0 0 127 0" result="hardAlpha"/>
<feOffset dy="1.04134"/>
<feGaussianBlur stdDeviation="1.04134"/>
<feColorMatrix type="matrix" values="0 0 0 0 0.196487 0 0 0 0 0.196487 0 0 0 0 0.279476 0 0 0 0.06 0"/>
<feBlend mode="multiply" in2="BackgroundImageFix" result="effect1_dropShadow_1_2617"/>
<feColorMatrix in="SourceAlpha" type="matrix" values="0 0 0 0 0 0 0 0 0 0 0 0 0 0 0 0 0 0 127 0" result="hardAlpha"/>
<feOffset dy="1.04134"/>
<feGaussianBlur stdDeviation="0.520669"/>
<feColorMatrix type="matrix" values="0 0 0 0 0.196487 0 0 0 0 0.196487 0 0 0 0 0.279476 0 0 0 0.06 0"/>
<feBlend mode="multiply" in2="effect1_dropShadow_1_2617" result="effect2_dropShadow_1_2617"/>
<feBlend mode="normal" in="SourceGraphic" in2="effect2_dropShadow_1_2617" result="shape"/>
</filter>
<filter id="filter1_dd_1_2617" x="267.57" y="52.9828" width="13.2093" height="13.2091" filterUnits="userSpaceOnUse" color-interpolation-filters="sRGB">
<feFlood flood-opacity="0" result="BackgroundImageFix"/>
<feColorMatrix in="SourceAlpha" type="matrix" values="0 0 0 0 0 0 0 0 0 0 0 0 0 0 0 0 0 0 127 0" result="hardAlpha"/>
<feOffset dy="1.04134"/>
<feGaussianBlur stdDeviation="1.04134"/>
<feColorMatrix type="matrix" values="0 0 0 0 0.196487 0 0 0 0 0.196487 0 0 0 0 0.279476 0 0 0 0.06 0"/>
<feBlend mode="multiply" in2="BackgroundImageFix" result="effect1_dropShadow_1_2617"/>
<feColorMatrix in="SourceAlpha" type="matrix" values="0 0 0 0 0 0 0 0 0 0 0 0 0 0 0 0 0 0 127 0" result="hardAlpha"/>
<feOffset dy="1.04134"/>
<feGaussianBlur stdDeviation="0.520669"/>
<feColorMatrix type="matrix" values="0 0 0 0 0.196487 0 0 0 0 0.196487 0 0 0 0 0.279476 0 0 0 0.06 0"/>
<feBlend mode="multiply" in2="effect1_dropShadow_1_2617" result="effect2_dropShadow_1_2617"/>
<feBlend mode="normal" in="SourceGraphic" in2="effect2_dropShadow_1_2617" result="shape"/>
</filter>
<filter id="filter2_dd_1_2617" x="240.405" y="85.6047" width="13.2093" height="13.2091" filterUnits="userSpaceOnUse" color-interpolation-filters="sRGB">
<feFlood flood-opacity="0" result="BackgroundImageFix"/>
<feColorMatrix in="SourceAlpha" type="matrix" values="0 0 0 0 0 0 0 0 0 0 0 0 0 0 0 0 0 0 127 0" result="hardAlpha"/>
<feOffset dy="1.04134"/>
<feGaussianBlur stdDeviation="1.04134"/>
<feColorMatrix type="matrix" values="0 0 0 0 0.196487 0 0 0 0 0.196487 0 0 0 0 0.279476 0 0 0 0.06 0"/>
<feBlend mode="multiply" in2="BackgroundImageFix" result="effect1_dropShadow_1_2617"/>
<feColorMatrix in="SourceAlpha" type="matrix" values="0 0 0 0 0 0 0 0 0 0 0 0 0 0 0 0 0 0 127 0" result="hardAlpha"/>
<feOffset dy="1.04134"/>
<feGaussianBlur stdDeviation="0.520669"/>
<feColorMatrix type="matrix" values="0 0 0 0 0.196487 0 0 0 0 0.196487 0 0 0 0 0.279476 0 0 0 0.06 0"/>
<feBlend mode="multiply" in2="effect1_dropShadow_1_2617" result="effect2_dropShadow_1_2617"/>
<feBlend mode="normal" in="SourceGraphic" in2="effect2_dropShadow_1_2617" result="shape"/>
</filter>
<filter id="filter3_dd_1_2617" x="167.749" y="75.5663" width="13.2093" height="13.2091" filterUnits="userSpaceOnUse" color-interpolation-filters="sRGB">
<feFlood flood-opacity="0" result="BackgroundImageFix"/>
<feColorMatrix in="SourceAlpha" type="matrix" values="0 0 0 0 0 0 0 0 0 0 0 0 0 0 0 0 0 0 127 0" result="hardAlpha"/>
<feOffset dy="1.04134"/>
<feGaussianBlur stdDeviation="1.04134"/>
<feColorMatrix type="matrix" values="0 0 0 0 0.196487 0 0 0 0 0.196487 0 0 0 0 0.279476 0 0 0 0.06 0"/>
<feBlend mode="multiply" in2="BackgroundImageFix" result="effect1_dropShadow_1_2617"/>
<feColorMatrix in="SourceAlpha" type="matrix" values="0 0 0 0 0 0 0 0 0 0 0 0 0 0 0 0 0 0 127 0" result="hardAlpha"/>
<feOffset dy="1.04134"/>
<feGaussianBlur stdDeviation="0.520669"/>
<feColorMatrix type="matrix" values="0 0 0 0 0.196487 0 0 0 0 0.196487 0 0 0 0 0.279476 0 0 0 0.06 0"/>
<feBlend mode="multiply" in2="effect1_dropShadow_1_2617" result="effect2_dropShadow_1_2617"/>
<feBlend mode="normal" in="SourceGraphic" in2="effect2_dropShadow_1_2617" result="shape"/>
</filter>
<filter id="filter4_dd_1_2617" x="129.039" y="105.679" width="13.2093" height="13.2091" filterUnits="userSpaceOnUse" color-interpolation-filters="sRGB">
<feFlood flood-opacity="0" result="BackgroundImageFix"/>
<feColorMatrix in="SourceAlpha" type="matrix" values="0 0 0 0 0 0 0 0 0 0 0 0 0 0 0 0 0 0 127 0" result="hardAlpha"/>
<feOffset dy="1.04134"/>
<feGaussianBlur stdDeviation="1.04134"/>
<feColorMatrix type="matrix" values="0 0 0 0 0.196487 0 0 0 0 0.196487 0 0 0 0 0.279476 0 0 0 0.06 0"/>
<feBlend mode="multiply" in2="BackgroundImageFix" result="effect1_dropShadow_1_2617"/>
<feColorMatrix in="SourceAlpha" type="matrix" values="0 0 0 0 0 0 0 0 0 0 0 0 0 0 0 0 0 0 127 0" result="hardAlpha"/>
<feOffset dy="1.04134"/>
<feGaussianBlur stdDeviation="0.520669"/>
<feColorMatrix type="matrix" values="0 0 0 0 0.196487 0 0 0 0 0.196487 0 0 0 0 0.279476 0 0 0 0.06 0"/>
<feBlend mode="multiply" in2="effect1_dropShadow_1_2617" result="effect2_dropShadow_1_2617"/>
<feBlend mode="normal" in="SourceGraphic" in2="effect2_dropShadow_1_2617" result="shape"/>
</filter>
<filter id="filter5_dd_1_2617" x="95.0882" y="94.8024" width="13.2093" height="13.2091" filterUnits="userSpaceOnUse" color-interpolation-filters="sRGB">
<feFlood flood-opacity="0" result="BackgroundImageFix"/>
<feColorMatrix in="SourceAlpha" type="matrix" values="0 0 0 0 0 0 0 0 0 0 0 0 0 0 0 0 0 0 127 0" result="hardAlpha"/>
<feOffset dy="1.04134"/>
<feGaussianBlur stdDeviation="1.04134"/>
<feColorMatrix type="matrix" values="0 0 0 0 0.196487 0 0 0 0 0.196487 0 0 0 0 0.279476 0 0 0 0.06 0"/>
<feBlend mode="multiply" in2="BackgroundImageFix" result="effect1_dropShadow_1_2617"/>
<feColorMatrix in="SourceAlpha" type="matrix" values="0 0 0 0 0 0 0 0 0 0 0 0 0 0 0 0 0 0 127 0" result="hardAlpha"/>
<feOffset dy="1.04134"/>
<feGaussianBlur stdDeviation="0.520669"/>
<feColorMatrix type="matrix" values="0 0 0 0 0.196487 0 0 0 0 0.196487 0 0 0 0 0.279476 0 0 0 0.06 0"/>
<feBlend mode="multiply" in2="effect1_dropShadow_1_2617" result="effect2_dropShadow_1_2617"/>
<feBlend mode="normal" in="SourceGraphic" in2="effect2_dropShadow_1_2617" result="shape"/>
</filter>
<filter id="filter6_dd_1_2617" x="55.703" y="122.405" width="13.2093" height="13.2091" filterUnits="userSpaceOnUse" color-interpolation-filters="sRGB">
<feFlood flood-opacity="0" result="BackgroundImageFix"/>
<feColorMatrix in="SourceAlpha" type="matrix" values="0 0 0 0 0 0 0 0 0 0 0 0 0 0 0 0 0 0 127 0" result="hardAlpha"/>
<feOffset dy="1.04134"/>
<feGaussianBlur stdDeviation="1.04134"/>
<feColorMatrix type="matrix" values="0 0 0 0 0.196487 0 0 0 0 0.196487 0 0 0 0 0.279476 0 0 0 0.06 0"/>
<feBlend mode="multiply" in2="BackgroundImageFix" result="effect1_dropShadow_1_2617"/>
<feColorMatrix in="SourceAlpha" type="matrix" values="0 0 0 0 0 0 0 0 0 0 0 0 0 0 0 0 0 0 127 0" result="hardAlpha"/>
<feOffset dy="1.04134"/>
<feGaussianBlur stdDeviation="0.520669"/>
<feColorMatrix type="matrix" values="0 0 0 0 0.196487 0 0 0 0 0.196487 0 0 0 0 0.279476 0 0 0 0.06 0"/>
<feBlend mode="multiply" in2="effect1_dropShadow_1_2617" result="effect2_dropShadow_1_2617"/>
<feBlend mode="normal" in="SourceGraphic" in2="effect2_dropShadow_1_2617" result="shape"/>
</filter>
</defs>
</svg>
