<svg width="550" height="226" viewBox="0 0 550 226" fill="none" xmlns="http://www.w3.org/2000/svg">
<rect width="549.615" height="226" rx="7.87218" fill="white"/>
<path d="M49.8672 180.163H529" stroke="#E4E4E4" stroke-opacity="0.2" stroke-width="0.787218" stroke-linecap="square"/>
<path d="M49.8672 153.19H529" stroke="#E4E4E4" stroke-opacity="0.2" stroke-width="0.787218" stroke-linecap="square"/>
<path d="M49.8672 126.217H529" stroke="#E4E4E4" stroke-opacity="0.2" stroke-width="0.787218" stroke-linecap="square"/>
<path d="M49.8672 99.2368H529" stroke="#E4E4E4" stroke-opacity="0.2" stroke-width="0.787218" stroke-linecap="square"/>
<path d="M49.8672 72.2681H529" stroke="#E4E4E4" stroke-opacity="0.2" stroke-width="0.787218" stroke-linecap="square"/>
<path d="M49.8672 45.2915H529" stroke="#E4E4E4" stroke-opacity="0.2" stroke-width="0.787218" stroke-linecap="square"/>
<path d="M49.8672 171.075L115.237 163.03L182.475 126.46L248.779 140.357L316.016 103.056L384.188 88.4279L446.756 114.298L499.052 72.3373L529 65.7812" stroke="#27B3AA" stroke-width="1.57444" stroke-linecap="round" stroke-linejoin="round"/>
<g filter="url(#filter0_dd_1_1586)">
<rect x="377.1" y="83.3496" width="13.6736" height="13.6736" rx="6.83678" fill="#27B3AA"/>
<rect x="377.887" y="84.1368" width="12.0991" height="12.0991" rx="6.04956" stroke="white" stroke-width="1.57444"/>
</g>
<g filter="url(#filter1_dd_1_1586)">
<rect x="487.231" y="67.4316" width="13.6736" height="13.6736" rx="6.83678" fill="#27B3AA"/>
<rect x="488.018" y="68.2189" width="12.0991" height="12.0991" rx="6.04956" stroke="white" stroke-width="1.57444"/>
</g>
<g filter="url(#filter2_dd_1_1586)">
<rect x="438.278" y="108.814" width="13.6736" height="13.6736" rx="6.83678" fill="#27B3AA"/>
<rect x="439.066" y="109.602" width="12.0991" height="12.0991" rx="6.04956" stroke="white" stroke-width="1.57444"/>
</g>
<g filter="url(#filter3_dd_1_1586)">
<rect x="307.352" y="96.0801" width="13.6736" height="13.6736" rx="6.83678" fill="#27B3AA"/>
<rect x="308.139" y="96.8673" width="12.0991" height="12.0991" rx="6.04956" stroke="white" stroke-width="1.57444"/>
</g>
<g filter="url(#filter4_dd_1_1586)">
<rect x="237.595" y="134.279" width="13.6736" height="13.6736" rx="6.83678" fill="#27B3AA"/>
<rect x="238.382" y="135.067" width="12.0991" height="12.0991" rx="6.04956" stroke="white" stroke-width="1.57444"/>
</g>
<g filter="url(#filter5_dd_1_1586)">
<rect x="176.416" y="120.482" width="13.6736" height="13.6736" rx="6.83678" fill="#27B3AA"/>
<rect x="177.203" y="121.27" width="12.0991" height="12.0991" rx="6.04956" stroke="white" stroke-width="1.57444"/>
</g>
<g filter="url(#filter6_dd_1_1586)">
<rect x="105.443" y="155.498" width="13.6736" height="13.6736" rx="6.83678" fill="#27B3AA"/>
<rect x="106.23" y="156.285" width="12.0991" height="12.0991" rx="6.04956" stroke="white" stroke-width="1.57444"/>
</g>
<path d="M54.4328 204.162V203.608L56.5116 201.333C56.7555 201.066 56.9564 200.835 57.1143 200.638C57.2722 200.439 57.389 200.252 57.4649 200.078C57.5428 199.902 57.5817 199.717 57.5817 199.525C57.5817 199.303 57.5284 199.112 57.4218 198.95C57.3173 198.788 57.1738 198.663 56.9913 198.574C56.8088 198.486 56.6038 198.442 56.3763 198.442C56.1344 198.442 55.9232 198.492 55.7428 198.593C55.5645 198.691 55.4261 198.83 55.3277 199.008C55.2313 199.186 55.1832 199.396 55.1832 199.635H54.4574C54.4574 199.266 54.5425 198.942 54.7127 198.664C54.8828 198.385 55.1145 198.168 55.4076 198.012C55.7028 197.856 56.0339 197.778 56.4009 197.778C56.7699 197.778 57.0969 197.856 57.3818 198.012C57.6668 198.168 57.8902 198.378 58.0522 198.642C58.2142 198.907 58.2951 199.201 58.2951 199.525C58.2951 199.756 58.2531 199.983 58.169 200.204C58.087 200.424 57.9435 200.669 57.7385 200.939C57.5356 201.208 57.2537 201.536 56.8929 201.923L55.4784 203.436V203.485H58.4058V204.162H54.4328ZM61.73 204.248C61.2667 204.248 60.872 204.122 60.5461 203.87C60.2201 203.616 59.971 203.248 59.7988 202.766C59.6266 202.282 59.5405 201.698 59.5405 201.013C59.5405 200.332 59.6266 199.751 59.7988 199.269C59.9731 198.786 60.2232 198.417 60.5492 198.162C60.8772 197.906 61.2708 197.778 61.73 197.778C62.1892 197.778 62.5818 197.906 62.9077 198.162C63.2357 198.417 63.4858 198.786 63.658 199.269C63.8323 199.751 63.9194 200.332 63.9194 201.013C63.9194 201.698 63.8333 202.282 63.6611 202.766C63.4889 203.248 63.2398 203.616 62.9139 203.87C62.5879 204.122 62.1933 204.248 61.73 204.248ZM61.73 203.571C62.1892 203.571 62.5459 203.35 62.8001 202.907C63.0543 202.464 63.1814 201.833 63.1814 201.013C63.1814 200.468 63.123 200.003 63.0061 199.62C62.8913 199.237 62.7253 198.944 62.508 198.744C62.2927 198.543 62.0334 198.442 61.73 198.442C61.2749 198.442 60.9192 198.667 60.6629 199.116C60.4067 199.563 60.2785 200.195 60.2785 201.013C60.2785 201.558 60.3359 202.022 60.4508 202.403C60.5656 202.784 60.7306 203.074 60.9458 203.273C61.1631 203.472 61.4245 203.571 61.73 203.571ZM67.302 197.864V204.162H66.5394V198.664H66.5025L64.965 199.685V198.91L66.5394 197.864H67.302ZM71.2043 204.248C70.946 204.244 70.6877 204.195 70.4294 204.1C70.171 204.006 69.9353 203.847 69.7221 203.624C69.5089 203.398 69.3377 203.094 69.2085 202.71C69.0794 202.325 69.0148 201.841 69.0148 201.259C69.0148 200.701 69.0671 200.207 69.1716 199.777C69.2762 199.344 69.4279 198.98 69.6268 198.685C69.8256 198.388 70.0655 198.162 70.3463 198.009C70.6292 197.855 70.948 197.778 71.3027 197.778C71.6553 197.778 71.9689 197.849 72.2436 197.99C72.5204 198.13 72.7459 198.324 72.9202 198.574C73.0944 198.825 73.2072 199.113 73.2584 199.439H72.5081C72.4384 199.156 72.3031 198.921 72.1022 198.734C71.9013 198.548 71.6348 198.455 71.3027 198.455C70.8148 198.455 70.4304 198.667 70.1495 199.091C69.8707 199.515 69.7303 200.111 69.7282 200.878H69.7774C69.8922 200.703 70.0286 200.555 70.1864 200.432C70.3463 200.307 70.5226 200.21 70.7153 200.143C70.908 200.075 71.112 200.041 71.3273 200.041C71.6881 200.041 72.0181 200.131 72.3174 200.312C72.6168 200.49 72.8566 200.737 73.037 201.053C73.2174 201.367 73.3076 201.726 73.3076 202.132C73.3076 202.522 73.2205 202.879 73.0462 203.202C72.872 203.524 72.627 203.781 72.3113 203.971C71.9976 204.16 71.6286 204.252 71.2043 204.248ZM71.2043 203.571C71.4626 203.571 71.6942 203.507 71.8992 203.378C72.1063 203.249 72.2693 203.075 72.3882 202.858C72.5091 202.641 72.5696 202.399 72.5696 202.132C72.5696 201.872 72.5112 201.635 72.3943 201.422C72.2795 201.207 72.1206 201.036 71.9177 200.908C71.7168 200.781 71.4872 200.718 71.2289 200.718C71.0341 200.718 70.8527 200.757 70.6846 200.835C70.5165 200.91 70.3689 201.015 70.2418 201.148C70.1167 201.282 70.0183 201.434 69.9466 201.606C69.8748 201.777 69.8389 201.956 69.8389 202.145C69.8389 202.395 69.8974 202.628 70.0142 202.846C70.1331 203.063 70.2951 203.238 70.5001 203.372C70.7071 203.505 70.9419 203.571 71.2043 203.571Z" fill="#999999"/>
<path d="M128.307 204.162V203.608L130.386 201.333C130.63 201.066 130.831 200.835 130.989 200.638C131.146 200.439 131.263 200.252 131.339 200.078C131.417 199.902 131.456 199.717 131.456 199.525C131.456 199.303 131.403 199.112 131.296 198.95C131.192 198.788 131.048 198.663 130.866 198.574C130.683 198.486 130.478 198.442 130.251 198.442C130.009 198.442 129.798 198.492 129.617 198.593C129.439 198.691 129.3 198.83 129.202 199.008C129.106 199.186 129.057 199.396 129.057 199.635H128.332C128.332 199.266 128.417 198.942 128.587 198.664C128.757 198.385 128.989 198.168 129.282 198.012C129.577 197.856 129.908 197.778 130.275 197.778C130.644 197.778 130.971 197.856 131.256 198.012C131.541 198.168 131.765 198.378 131.927 198.642C132.088 198.907 132.169 199.201 132.169 199.525C132.169 199.756 132.127 199.983 132.043 200.204C131.961 200.424 131.818 200.669 131.613 200.939C131.41 201.208 131.128 201.536 130.767 201.923L129.353 203.436V203.485H132.28V204.162H128.307ZM135.604 204.248C135.141 204.248 134.746 204.122 134.42 203.87C134.094 203.616 133.845 203.248 133.673 202.766C133.501 202.282 133.415 201.698 133.415 201.013C133.415 200.332 133.501 199.751 133.673 199.269C133.847 198.786 134.098 198.417 134.423 198.162C134.751 197.906 135.145 197.778 135.604 197.778C136.064 197.778 136.456 197.906 136.782 198.162C137.11 198.417 137.36 198.786 137.532 199.269C137.707 199.751 137.794 200.332 137.794 201.013C137.794 201.698 137.708 202.282 137.535 202.766C137.363 203.248 137.114 203.616 136.788 203.87C136.462 204.122 136.068 204.248 135.604 204.248ZM135.604 203.571C136.064 203.571 136.42 203.35 136.674 202.907C136.929 202.464 137.056 201.833 137.056 201.013C137.056 200.468 136.997 200.003 136.88 199.62C136.766 199.237 136.6 198.944 136.382 198.744C136.167 198.543 135.908 198.442 135.604 198.442C135.149 198.442 134.794 198.667 134.537 199.116C134.281 199.563 134.153 200.195 134.153 201.013C134.153 201.558 134.21 202.022 134.325 202.403C134.44 202.784 134.605 203.074 134.82 203.273C135.037 203.472 135.299 203.571 135.604 203.571ZM141.176 197.864V204.162H140.414V198.664H140.377L138.839 199.685V198.91L140.414 197.864H141.176ZM143.184 204.162L146.001 198.59V198.541H142.754V197.864H146.788V198.578L143.984 204.162H143.184Z" fill="#999999"/>
<path d="M201.759 204.162V203.608L203.837 201.333C204.081 201.066 204.282 200.835 204.44 200.638C204.598 200.439 204.715 200.252 204.791 200.078C204.869 199.902 204.908 199.717 204.908 199.525C204.908 199.303 204.854 199.112 204.748 198.95C204.643 198.788 204.5 198.663 204.317 198.574C204.135 198.486 203.93 198.442 203.702 198.442C203.46 198.442 203.249 198.492 203.069 198.593C202.89 198.691 202.752 198.83 202.654 199.008C202.557 199.186 202.509 199.396 202.509 199.635H201.783C201.783 199.266 201.868 198.942 202.038 198.664C202.209 198.385 202.44 198.168 202.733 198.012C203.029 197.856 203.36 197.778 203.727 197.778C204.096 197.778 204.423 197.856 204.708 198.012C204.993 198.168 205.216 198.378 205.378 198.642C205.54 198.907 205.621 199.201 205.621 199.525C205.621 199.756 205.579 199.983 205.495 200.204C205.413 200.424 205.269 200.669 205.064 200.939C204.861 201.208 204.58 201.536 204.219 201.923L202.804 203.436V203.485H205.732V204.162H201.759ZM209.056 204.248C208.592 204.248 208.198 204.122 207.872 203.87C207.546 203.616 207.297 203.248 207.125 202.766C206.952 202.282 206.866 201.698 206.866 201.013C206.866 200.332 206.952 199.751 207.125 199.269C207.299 198.786 207.549 198.417 207.875 198.162C208.203 197.906 208.597 197.778 209.056 197.778C209.515 197.778 209.908 197.906 210.234 198.162C210.562 198.417 210.812 198.786 210.984 199.269C211.158 199.751 211.245 200.332 211.245 201.013C211.245 201.698 211.159 202.282 210.987 202.766C210.815 203.248 210.566 203.616 210.24 203.87C209.914 204.122 209.519 204.248 209.056 204.248ZM209.056 203.571C209.515 203.571 209.872 203.35 210.126 202.907C210.38 202.464 210.507 201.833 210.507 201.013C210.507 200.468 210.449 200.003 210.332 199.62C210.217 199.237 210.051 198.944 209.834 198.744C209.619 198.543 209.359 198.442 209.056 198.442C208.601 198.442 208.245 198.667 207.989 199.116C207.732 199.563 207.604 200.195 207.604 201.013C207.604 201.558 207.662 202.022 207.777 202.403C207.891 202.784 208.056 203.074 208.272 203.273C208.489 203.472 208.75 203.571 209.056 203.571ZM214.628 197.864V204.162H213.865V198.664H213.828L212.291 199.685V198.91L213.865 197.864H214.628ZM218.456 204.248C218.034 204.248 217.661 204.173 217.337 204.023C217.015 203.872 216.764 203.664 216.584 203.399C216.403 203.133 216.314 202.829 216.316 202.489C216.314 202.223 216.366 201.977 216.473 201.751C216.579 201.523 216.725 201.334 216.91 201.182C217.096 201.028 217.304 200.931 217.534 200.89V200.853C217.232 200.775 216.993 200.606 216.814 200.346C216.636 200.083 216.548 199.785 216.55 199.451C216.548 199.131 216.629 198.845 216.793 198.593C216.957 198.341 217.182 198.142 217.469 197.996C217.758 197.851 218.087 197.778 218.456 197.778C218.821 197.778 219.147 197.851 219.434 197.996C219.721 198.142 219.947 198.341 220.111 198.593C220.277 198.845 220.361 199.131 220.363 199.451C220.361 199.785 220.27 200.083 220.089 200.346C219.911 200.606 219.674 200.775 219.379 200.853V200.89C219.606 200.931 219.811 201.028 219.994 201.182C220.176 201.334 220.322 201.523 220.43 201.751C220.539 201.977 220.594 202.223 220.597 202.489C220.594 202.829 220.502 203.133 220.32 203.399C220.139 203.664 219.888 203.872 219.566 204.023C219.247 204.173 218.877 204.248 218.456 204.248ZM218.456 203.571C218.741 203.571 218.987 203.525 219.194 203.433C219.401 203.341 219.561 203.211 219.674 203.043C219.787 202.874 219.844 202.678 219.846 202.452C219.844 202.214 219.783 202.004 219.662 201.822C219.541 201.639 219.376 201.496 219.167 201.391C218.96 201.287 218.723 201.234 218.456 201.234C218.188 201.234 217.948 201.287 217.737 201.391C217.528 201.496 217.363 201.639 217.242 201.822C217.123 202.004 217.064 202.214 217.066 202.452C217.064 202.678 217.119 202.874 217.229 203.043C217.342 203.211 217.503 203.341 217.712 203.433C217.921 203.525 218.169 203.571 218.456 203.571ZM218.456 200.582C218.682 200.582 218.882 200.537 219.056 200.447C219.232 200.357 219.371 200.231 219.471 200.069C219.572 199.907 219.623 199.717 219.625 199.5C219.623 199.287 219.573 199.101 219.474 198.943C219.376 198.784 219.239 198.661 219.065 198.574C218.891 198.486 218.688 198.442 218.456 198.442C218.221 198.442 218.015 198.486 217.838 198.574C217.662 198.661 217.526 198.784 217.429 198.943C217.333 199.101 217.286 199.287 217.288 199.5C217.286 199.717 217.334 199.907 217.432 200.069C217.533 200.231 217.671 200.357 217.847 200.447C218.024 200.537 218.227 200.582 218.456 200.582Z" fill="#999999"/>
<path d="M275.37 204.162V203.608L277.449 201.333C277.693 201.066 277.894 200.835 278.052 200.638C278.21 200.439 278.327 200.252 278.402 200.078C278.48 199.902 278.519 199.717 278.519 199.525C278.519 199.303 278.466 199.112 278.359 198.95C278.255 198.788 278.111 198.663 277.929 198.574C277.746 198.486 277.541 198.442 277.314 198.442C277.072 198.442 276.861 198.492 276.68 198.593C276.502 198.691 276.364 198.83 276.265 199.008C276.169 199.186 276.121 199.396 276.121 199.635H275.395C275.395 199.266 275.48 198.942 275.65 198.664C275.82 198.385 276.052 198.168 276.345 198.012C276.64 197.856 276.971 197.778 277.338 197.778C277.707 197.778 278.034 197.856 278.319 198.012C278.604 198.168 278.828 198.378 278.99 198.642C279.152 198.907 279.233 199.201 279.233 199.525C279.233 199.756 279.191 199.983 279.107 200.204C279.025 200.424 278.881 200.669 278.676 200.939C278.473 201.208 278.191 201.536 277.83 201.923L276.416 203.436V203.485H279.343V204.162H275.37ZM282.667 204.248C282.204 204.248 281.81 204.122 281.484 203.87C281.158 203.616 280.909 203.248 280.736 202.766C280.564 202.282 280.478 201.698 280.478 201.013C280.478 200.332 280.564 199.751 280.736 199.269C280.911 198.786 281.161 198.417 281.487 198.162C281.815 197.906 282.208 197.778 282.667 197.778C283.127 197.778 283.519 197.906 283.845 198.162C284.173 198.417 284.423 198.786 284.596 199.269C284.77 199.751 284.857 200.332 284.857 201.013C284.857 201.698 284.771 202.282 284.599 202.766C284.426 203.248 284.177 203.616 283.851 203.87C283.525 204.122 283.131 204.248 282.667 204.248ZM282.667 203.571C283.127 203.571 283.483 203.35 283.738 202.907C283.992 202.464 284.119 201.833 284.119 201.013C284.119 200.468 284.06 200.003 283.944 199.62C283.829 199.237 283.663 198.944 283.445 198.744C283.23 198.543 282.971 198.442 282.667 198.442C282.212 198.442 281.857 198.667 281.6 199.116C281.344 199.563 281.216 200.195 281.216 201.013C281.216 201.558 281.273 202.022 281.388 202.403C281.503 202.784 281.668 203.074 281.883 203.273C282.101 203.472 282.362 203.571 282.667 203.571ZM288.24 197.864V204.162H287.477V198.664H287.44L285.902 199.685V198.91L287.477 197.864H288.24ZM292.056 197.778C292.314 197.78 292.572 197.829 292.831 197.926C293.089 198.022 293.325 198.182 293.538 198.405C293.751 198.627 293.922 198.929 294.051 199.312C294.181 199.696 294.245 200.177 294.245 200.755C294.245 201.314 294.192 201.811 294.085 202.246C293.981 202.679 293.829 203.044 293.63 203.341C293.433 203.638 293.193 203.864 292.911 204.017C292.63 204.171 292.312 204.248 291.957 204.248C291.605 204.248 291.29 204.178 291.013 204.039C290.739 203.897 290.513 203.702 290.337 203.452C290.162 203.199 290.051 202.907 290.002 202.575H290.752C290.819 202.864 290.954 203.103 291.155 203.292C291.358 203.478 291.625 203.571 291.957 203.571C292.443 203.571 292.826 203.359 293.107 202.935C293.39 202.511 293.532 201.911 293.532 201.136H293.483C293.368 201.308 293.231 201.457 293.074 201.582C292.916 201.707 292.74 201.803 292.548 201.871C292.355 201.939 292.15 201.972 291.933 201.972C291.572 201.972 291.241 201.883 290.939 201.705C290.64 201.524 290.4 201.277 290.22 200.964C290.041 200.648 289.952 200.287 289.952 199.881C289.952 199.496 290.038 199.143 290.211 198.824C290.385 198.502 290.629 198.245 290.942 198.055C291.258 197.864 291.629 197.772 292.056 197.778ZM292.056 198.455C291.797 198.455 291.565 198.519 291.358 198.648C291.153 198.775 290.99 198.948 290.869 199.165C290.75 199.38 290.69 199.619 290.69 199.881C290.69 200.144 290.748 200.383 290.863 200.598C290.979 200.811 291.138 200.981 291.339 201.108C291.542 201.233 291.773 201.296 292.031 201.296C292.226 201.296 292.407 201.258 292.575 201.182C292.743 201.104 292.89 200.999 293.015 200.865C293.142 200.73 293.242 200.577 293.313 200.407C293.385 200.235 293.421 200.056 293.421 199.869C293.421 199.623 293.362 199.392 293.243 199.177C293.126 198.962 292.964 198.788 292.757 198.654C292.552 198.521 292.318 198.455 292.056 198.455Z" fill="#999999"/>
<path d="M348.952 204V203.446L351.03 201.171C351.274 200.904 351.475 200.673 351.633 200.476C351.791 200.277 351.908 200.091 351.984 199.916C352.062 199.74 352.101 199.555 352.101 199.363C352.101 199.141 352.047 198.95 351.941 198.788C351.836 198.626 351.693 198.501 351.51 198.413C351.328 198.324 351.123 198.28 350.895 198.28C350.653 198.28 350.442 198.331 350.262 198.431C350.083 198.529 349.945 198.668 349.847 198.846C349.75 199.025 349.702 199.234 349.702 199.473H348.976C348.976 199.104 349.061 198.781 349.232 198.502C349.402 198.223 349.633 198.006 349.927 197.85C350.222 197.694 350.553 197.616 350.92 197.616C351.289 197.616 351.616 197.694 351.901 197.85C352.186 198.006 352.409 198.216 352.571 198.48C352.733 198.745 352.814 199.039 352.814 199.363C352.814 199.594 352.772 199.821 352.688 200.042C352.606 200.262 352.462 200.507 352.257 200.777C352.054 201.046 351.773 201.374 351.412 201.761L349.997 203.274V203.323H352.925V204H348.952ZM356.249 204.086C355.786 204.086 355.391 203.96 355.065 203.708C354.739 203.454 354.49 203.086 354.318 202.604C354.145 202.12 354.059 201.536 354.059 200.851C354.059 200.171 354.145 199.589 354.318 199.108C354.492 198.624 354.742 198.255 355.068 198.001C355.396 197.744 355.79 197.616 356.249 197.616C356.708 197.616 357.101 197.744 357.427 198.001C357.755 198.255 358.005 198.624 358.177 199.108C358.351 199.589 358.438 200.171 358.438 200.851C358.438 201.536 358.352 202.12 358.18 202.604C358.008 203.086 357.759 203.454 357.433 203.708C357.107 203.96 356.712 204.086 356.249 204.086ZM356.249 203.41C356.708 203.41 357.065 203.188 357.319 202.745C357.573 202.303 357.7 201.671 357.7 200.851C357.7 200.306 357.642 199.841 357.525 199.458C357.41 199.075 357.244 198.783 357.027 198.582C356.812 198.381 356.552 198.28 356.249 198.28C355.794 198.28 355.438 198.505 355.182 198.954C354.926 199.401 354.797 200.033 354.797 200.851C354.797 201.396 354.855 201.86 354.97 202.241C355.084 202.622 355.249 202.912 355.465 203.111C355.682 203.31 355.943 203.41 356.249 203.41ZM359.607 204V203.446L361.686 201.171C361.93 200.904 362.13 200.673 362.288 200.476C362.446 200.277 362.563 200.091 362.639 199.916C362.717 199.74 362.756 199.555 362.756 199.363C362.756 199.141 362.702 198.95 362.596 198.788C362.491 198.626 362.348 198.501 362.165 198.413C361.983 198.324 361.778 198.28 361.55 198.28C361.308 198.28 361.097 198.331 360.917 198.431C360.738 198.529 360.6 198.668 360.502 198.846C360.405 199.025 360.357 199.234 360.357 199.473H359.631C359.631 199.104 359.716 198.781 359.887 198.502C360.057 198.223 360.288 198.006 360.582 197.85C360.877 197.694 361.208 197.616 361.575 197.616C361.944 197.616 362.271 197.694 362.556 197.85C362.841 198.006 363.064 198.216 363.226 198.48C363.388 198.745 363.469 199.039 363.469 199.363C363.469 199.594 363.427 199.821 363.343 200.042C363.261 200.262 363.118 200.507 362.913 200.777C362.71 201.046 362.428 201.374 362.067 201.761L360.652 203.274V203.323H363.58V204H359.607ZM366.904 204.086C366.441 204.086 366.046 203.96 365.72 203.708C365.394 203.454 365.145 203.086 364.973 202.604C364.801 202.12 364.715 201.536 364.715 200.851C364.715 200.171 364.801 199.589 364.973 199.108C365.147 198.624 365.397 198.255 365.723 198.001C366.051 197.744 366.445 197.616 366.904 197.616C367.363 197.616 367.756 197.744 368.082 198.001C368.41 198.255 368.66 198.624 368.832 199.108C369.006 199.589 369.093 200.171 369.093 200.851C369.093 201.536 369.007 202.12 368.835 202.604C368.663 203.086 368.414 203.454 368.088 203.708C367.762 203.96 367.367 204.086 366.904 204.086ZM366.904 203.41C367.363 203.41 367.72 203.188 367.974 202.745C368.228 202.303 368.355 201.671 368.355 200.851C368.355 200.306 368.297 199.841 368.18 199.458C368.065 199.075 367.899 198.783 367.682 198.582C367.467 198.381 367.207 198.28 366.904 198.28C366.449 198.28 366.093 198.505 365.837 198.954C365.581 199.401 365.453 200.033 365.453 200.851C365.453 201.396 365.51 201.86 365.625 202.241C365.74 202.622 365.905 202.912 366.12 203.111C366.337 203.31 366.599 203.41 366.904 203.41Z" fill="#999999"/>
<path d="M423.231 204.162V203.608L425.31 201.333C425.554 201.066 425.755 200.835 425.912 200.638C426.07 200.439 426.187 200.252 426.263 200.078C426.341 199.902 426.38 199.717 426.38 199.525C426.38 199.303 426.327 199.112 426.22 198.95C426.115 198.788 425.972 198.663 425.789 198.574C425.607 198.486 425.402 198.442 425.174 198.442C424.933 198.442 424.721 198.492 424.541 198.593C424.363 198.691 424.224 198.83 424.126 199.008C424.029 199.186 423.981 199.396 423.981 199.635H423.256C423.256 199.266 423.341 198.942 423.511 198.664C423.681 198.385 423.913 198.168 424.206 198.012C424.501 197.856 424.832 197.778 425.199 197.778C425.568 197.778 425.895 197.856 426.18 198.012C426.465 198.168 426.688 198.378 426.85 198.642C427.012 198.907 427.093 199.201 427.093 199.525C427.093 199.756 427.051 199.983 426.967 200.204C426.885 200.424 426.742 200.669 426.537 200.939C426.334 201.208 426.052 201.536 425.691 201.923L424.276 203.436V203.485H427.204V204.162H423.231ZM430.528 204.248C430.065 204.248 429.67 204.122 429.344 203.87C429.018 203.616 428.769 203.248 428.597 202.766C428.425 202.282 428.339 201.698 428.339 201.013C428.339 200.332 428.425 199.751 428.597 199.269C428.771 198.786 429.021 198.417 429.347 198.162C429.675 197.906 430.069 197.778 430.528 197.778C430.987 197.778 431.38 197.906 431.706 198.162C432.034 198.417 432.284 198.786 432.456 199.269C432.63 199.751 432.718 200.332 432.718 201.013C432.718 201.698 432.631 202.282 432.459 202.766C432.287 203.248 432.038 203.616 431.712 203.87C431.386 204.122 430.991 204.248 430.528 204.248ZM430.528 203.571C430.987 203.571 431.344 203.35 431.598 202.907C431.852 202.464 431.98 201.833 431.98 201.013C431.98 200.468 431.921 200.003 431.804 199.62C431.689 199.237 431.523 198.944 431.306 198.744C431.091 198.543 430.832 198.442 430.528 198.442C430.073 198.442 429.717 198.667 429.461 199.116C429.205 199.563 429.077 200.195 429.077 201.013C429.077 201.558 429.134 202.022 429.249 202.403C429.364 202.784 429.529 203.074 429.744 203.273C429.961 203.472 430.223 203.571 430.528 203.571ZM433.886 204.162V203.608L435.965 201.333C436.209 201.066 436.41 200.835 436.568 200.638C436.725 200.439 436.842 200.252 436.918 200.078C436.996 199.902 437.035 199.717 437.035 199.525C437.035 199.303 436.982 199.112 436.875 198.95C436.771 198.788 436.627 198.663 436.445 198.574C436.262 198.486 436.057 198.442 435.83 198.442C435.588 198.442 435.376 198.492 435.196 198.593C435.018 198.691 434.879 198.83 434.781 199.008C434.685 199.186 434.636 199.396 434.636 199.635H433.911C433.911 199.266 433.996 198.942 434.166 198.664C434.336 198.385 434.568 198.168 434.861 198.012C435.156 197.856 435.487 197.778 435.854 197.778C436.223 197.778 436.55 197.856 436.835 198.012C437.12 198.168 437.343 198.378 437.505 198.642C437.667 198.907 437.748 199.201 437.748 199.525C437.748 199.756 437.706 199.983 437.622 200.204C437.54 200.424 437.397 200.669 437.192 200.939C436.989 201.208 436.707 201.536 436.346 201.923L434.932 203.436V203.485H437.859V204.162H433.886ZM439.129 204.162V203.608L441.208 201.333C441.452 201.066 441.653 200.835 441.811 200.638C441.968 200.439 442.085 200.252 442.161 200.078C442.239 199.902 442.278 199.717 442.278 199.525C442.278 199.303 442.225 199.112 442.118 198.95C442.013 198.788 441.87 198.663 441.688 198.574C441.505 198.486 441.3 198.442 441.073 198.442C440.831 198.442 440.619 198.492 440.439 198.593C440.261 198.691 440.122 198.83 440.024 199.008C439.928 199.186 439.879 199.396 439.879 199.635H439.154C439.154 199.266 439.239 198.942 439.409 198.664C439.579 198.385 439.811 198.168 440.104 198.012C440.399 197.856 440.73 197.778 441.097 197.778C441.466 197.778 441.793 197.856 442.078 198.012C442.363 198.168 442.586 198.378 442.748 198.642C442.91 198.907 442.991 199.201 442.991 199.525C442.991 199.756 442.949 199.983 442.865 200.204C442.783 200.424 442.64 200.669 442.435 200.939C442.232 201.208 441.95 201.536 441.589 201.923L440.175 203.436V203.485H443.102V204.162H439.129Z" fill="#999999"/>
<path d="M496.788 204.162V203.608L498.866 201.333C499.11 201.066 499.311 200.835 499.469 200.638C499.627 200.439 499.744 200.252 499.82 200.078C499.898 199.902 499.937 199.717 499.937 199.525C499.937 199.303 499.883 199.112 499.777 198.95C499.672 198.788 499.529 198.663 499.346 198.574C499.164 198.486 498.959 198.442 498.731 198.442C498.489 198.442 498.278 198.492 498.098 198.593C497.919 198.691 497.781 198.83 497.683 199.008C497.586 199.186 497.538 199.396 497.538 199.635H496.812C496.812 199.266 496.897 198.942 497.068 198.664C497.238 198.385 497.469 198.168 497.762 198.012C498.058 197.856 498.389 197.778 498.756 197.778C499.125 197.778 499.452 197.856 499.737 198.012C500.022 198.168 500.245 198.378 500.407 198.642C500.569 198.907 500.65 199.201 500.65 199.525C500.65 199.756 500.608 199.983 500.524 200.204C500.442 200.424 500.298 200.669 500.093 200.939C499.89 201.208 499.609 201.536 499.248 201.923L497.833 203.436V203.485H500.761V204.162H496.788ZM504.085 204.248C503.622 204.248 503.227 204.122 502.901 203.87C502.575 203.616 502.326 203.248 502.154 202.766C501.981 202.282 501.895 201.698 501.895 201.013C501.895 200.332 501.981 199.751 502.154 199.269C502.328 198.786 502.578 198.417 502.904 198.162C503.232 197.906 503.626 197.778 504.085 197.778C504.544 197.778 504.937 197.906 505.263 198.162C505.591 198.417 505.841 198.786 506.013 199.269C506.187 199.751 506.274 200.332 506.274 201.013C506.274 201.698 506.188 202.282 506.016 202.766C505.844 203.248 505.595 203.616 505.269 203.87C504.943 204.122 504.548 204.248 504.085 204.248ZM504.085 203.571C504.544 203.571 504.901 203.35 505.155 202.907C505.409 202.464 505.536 201.833 505.536 201.013C505.536 200.468 505.478 200.003 505.361 199.62C505.246 199.237 505.08 198.944 504.863 198.744C504.648 198.543 504.388 198.442 504.085 198.442C503.63 198.442 503.274 198.667 503.018 199.116C502.762 199.563 502.633 200.195 502.633 201.013C502.633 201.558 502.691 202.022 502.806 202.403C502.92 202.784 503.085 203.074 503.301 203.273C503.518 203.472 503.779 203.571 504.085 203.571ZM507.443 204.162V203.608L509.522 201.333C509.766 201.066 509.966 200.835 510.124 200.638C510.282 200.439 510.399 200.252 510.475 200.078C510.553 199.902 510.592 199.717 510.592 199.525C510.592 199.303 510.538 199.112 510.432 198.95C510.327 198.788 510.184 198.663 510.001 198.574C509.819 198.486 509.614 198.442 509.386 198.442C509.144 198.442 508.933 198.492 508.753 198.593C508.574 198.691 508.436 198.83 508.338 199.008C508.241 199.186 508.193 199.396 508.193 199.635H507.467C507.467 199.266 507.552 198.942 507.723 198.664C507.893 198.385 508.124 198.168 508.418 198.012C508.713 197.856 509.044 197.778 509.411 197.778C509.78 197.778 510.107 197.856 510.392 198.012C510.677 198.168 510.9 198.378 511.062 198.642C511.224 198.907 511.305 199.201 511.305 199.525C511.305 199.756 511.263 199.983 511.179 200.204C511.097 200.424 510.954 200.669 510.749 200.939C510.546 201.208 510.264 201.536 509.903 201.923L508.488 203.436V203.485H511.416V204.162H507.443ZM512.403 202.87V202.243L515.17 197.864H515.626V198.836H515.318L513.227 202.145V202.194H516.954V202.87H512.403ZM515.367 204.162V202.68V202.388V197.864H516.093V204.162H515.367Z" fill="#999999"/>
<path d="M27.9678 186.403C27.5045 186.403 27.1098 186.276 26.7839 186.024C26.4579 185.77 26.2088 185.402 26.0366 184.92C25.8644 184.437 25.7783 183.852 25.7783 183.168C25.7783 182.487 25.8644 181.906 26.0366 181.424C26.2109 180.94 26.461 180.571 26.787 180.317C27.115 180.061 27.5086 179.933 27.9678 179.933C28.427 179.933 28.8196 180.061 29.1455 180.317C29.4735 180.571 29.7236 180.94 29.8959 181.424C30.0701 181.906 30.1572 182.487 30.1572 183.168C30.1572 183.852 30.0711 184.437 29.8989 184.92C29.7267 185.402 29.4776 185.77 29.1517 186.024C28.8257 186.276 28.4311 186.403 27.9678 186.403ZM27.9678 185.726C28.427 185.726 28.7837 185.505 29.0379 185.062C29.2921 184.619 29.4192 183.988 29.4192 183.168C29.4192 182.622 29.3608 182.158 29.2439 181.775C29.1291 181.391 28.9631 181.099 28.7458 180.898C28.5305 180.697 28.2712 180.597 27.9678 180.597C27.5127 180.597 27.157 180.821 26.9007 181.27C26.6445 181.717 26.5163 182.35 26.5163 183.168C26.5163 183.713 26.5738 184.176 26.6886 184.557C26.8034 184.939 26.9684 185.229 27.1836 185.428C27.4009 185.627 27.6623 185.726 27.9678 185.726Z" fill="#999999"/>
<path d="M20.7391 159.309C20.4808 159.305 20.2225 159.256 19.9642 159.161C19.7059 159.067 19.4701 158.908 19.2569 158.685C19.0437 158.459 18.8725 158.155 18.7434 157.771C18.6142 157.386 18.5496 156.902 18.5496 156.32C18.5496 155.762 18.6019 155.268 18.7065 154.838C18.811 154.405 18.9627 154.041 19.1616 153.746C19.3604 153.449 19.6003 153.223 19.8811 153.07C20.164 152.916 20.4828 152.839 20.8375 152.839C21.1901 152.839 21.5038 152.91 21.7785 153.051C22.0552 153.191 22.2807 153.385 22.455 153.635C22.6292 153.886 22.742 154.174 22.7932 154.5H22.0429C21.9732 154.217 21.8379 153.982 21.637 153.795C21.4361 153.609 21.1696 153.516 20.8375 153.516C20.3496 153.516 19.9652 153.728 19.6843 154.152C19.4055 154.576 19.2651 155.172 19.2631 155.939H19.3123C19.4271 155.764 19.5634 155.616 19.7212 155.493C19.8811 155.368 20.0574 155.271 20.2502 155.204C20.4429 155.136 20.6468 155.102 20.8621 155.102C21.2229 155.102 21.553 155.193 21.8523 155.373C22.1516 155.551 22.3914 155.798 22.5718 156.114C22.7522 156.428 22.8424 156.787 22.8424 157.193C22.8424 157.583 22.7553 157.94 22.5811 158.263C22.4068 158.585 22.1618 158.842 21.8461 159.032C21.5325 159.221 21.1634 159.313 20.7391 159.309ZM20.7391 158.632C20.9974 158.632 21.229 158.568 21.4341 158.439C21.6411 158.31 21.8041 158.136 21.923 157.919C22.0439 157.702 22.1044 157.46 22.1044 157.193C22.1044 156.933 22.046 156.696 21.9291 156.483C21.8143 156.268 21.6555 156.097 21.4525 155.969C21.2516 155.842 21.022 155.779 20.7637 155.779C20.5689 155.779 20.3875 155.818 20.2194 155.896C20.0513 155.972 19.9037 156.076 19.7766 156.209C19.6515 156.343 19.5531 156.495 19.4814 156.668C19.4096 156.838 19.3738 157.017 19.3738 157.206C19.3738 157.456 19.4322 157.689 19.549 157.907C19.6679 158.124 19.8299 158.299 20.0349 158.433C20.242 158.566 20.4767 158.632 20.7391 158.632ZM24.2969 159.272C24.1452 159.272 24.0151 159.218 23.9064 159.109C23.7978 159 23.7434 158.87 23.7434 158.719C23.7434 158.567 23.7978 158.437 23.9064 158.328C24.0151 158.219 24.1452 158.165 24.2969 158.165C24.4486 158.165 24.5788 158.219 24.6875 158.328C24.7961 158.437 24.8505 158.567 24.8505 158.719C24.8505 158.819 24.8248 158.911 24.7736 158.995C24.7244 159.079 24.6578 159.147 24.5737 159.198C24.4917 159.248 24.3994 159.272 24.2969 159.272ZM27.9747 159.309C27.5114 159.309 27.1168 159.183 26.7908 158.931C26.4649 158.677 26.2158 158.309 26.0436 157.827C25.8714 157.343 25.7853 156.759 25.7853 156.074C25.7853 155.393 25.8714 154.812 26.0436 154.33C26.2178 153.847 26.4679 153.478 26.7939 153.223C27.1219 152.967 27.5155 152.839 27.9747 152.839C28.4339 152.839 28.8265 152.967 29.1525 153.223C29.4805 153.478 29.7306 153.847 29.9028 154.33C30.077 154.812 30.1642 155.393 30.1642 156.074C30.1642 156.759 30.0781 157.343 29.9059 157.827C29.7337 158.309 29.4846 158.677 29.1586 158.931C28.8327 159.183 28.438 159.309 27.9747 159.309ZM27.9747 158.632C28.4339 158.632 28.7906 158.411 29.0449 157.968C29.2991 157.525 29.4262 156.894 29.4262 156.074C29.4262 155.529 29.3677 155.064 29.2509 154.681C29.1361 154.298 28.97 154.006 28.7527 153.805C28.5375 153.604 28.2781 153.503 27.9747 153.503C27.5196 153.503 27.1639 153.728 26.9077 154.177C26.6514 154.624 26.5233 155.256 26.5233 156.074C26.5233 156.619 26.5807 157.083 26.6955 157.464C26.8103 157.845 26.9753 158.135 27.1906 158.334C27.4079 158.533 27.6693 158.632 27.9747 158.632Z" fill="#999999"/>
<path d="M20.7898 132.791C20.5315 132.787 20.2732 132.738 20.0149 132.644C19.7566 132.55 19.5208 132.391 19.3076 132.167C19.0944 131.942 18.9233 131.637 18.7941 131.254C18.665 130.868 18.6004 130.385 18.6004 129.802C18.6004 129.245 18.6527 128.751 18.7572 128.32C18.8618 127.888 19.0135 127.524 19.2123 127.229C19.4112 126.931 19.651 126.706 19.9319 126.552C20.2148 126.398 20.5336 126.321 20.8882 126.321C21.2408 126.321 21.5545 126.392 21.8292 126.534C22.106 126.673 22.3315 126.868 22.5057 127.118C22.68 127.368 22.7927 127.656 22.844 127.982H22.0937C22.024 127.699 21.8887 127.464 21.6877 127.278C21.4868 127.091 21.2203 126.998 20.8882 126.998C20.4003 126.998 20.0159 127.21 19.7351 127.635C19.4563 128.059 19.3158 128.654 19.3138 129.421H19.363C19.4778 129.247 19.6141 129.098 19.772 128.975C19.9319 128.85 20.1082 128.754 20.3009 128.686C20.4936 128.619 20.6976 128.585 20.9128 128.585C21.2736 128.585 21.6037 128.675 21.903 128.855C22.2023 129.034 22.4422 129.281 22.6226 129.596C22.803 129.91 22.8932 130.27 22.8932 130.676C22.8932 131.065 22.806 131.422 22.6318 131.746C22.4575 132.068 22.2126 132.324 21.8969 132.515C21.5832 132.703 21.2142 132.796 20.7898 132.791ZM20.7898 132.115C21.0481 132.115 21.2798 132.05 21.4848 131.921C21.6918 131.792 21.8548 131.619 21.9737 131.401C22.0947 131.184 22.1552 130.942 22.1552 130.676C22.1552 130.415 22.0967 130.179 21.9799 129.965C21.8651 129.75 21.7062 129.579 21.5032 129.452C21.3023 129.325 21.0727 129.261 20.8144 129.261C20.6197 129.261 20.4382 129.3 20.2701 129.378C20.102 129.454 19.9544 129.559 19.8273 129.692C19.7023 129.825 19.6039 129.978 19.5321 130.15C19.4604 130.32 19.4245 130.499 19.4245 130.688C19.4245 130.938 19.4829 131.172 19.5998 131.389C19.7187 131.606 19.8806 131.782 20.0856 131.915C20.2927 132.048 20.5274 132.115 20.7898 132.115ZM24.3477 132.755C24.196 132.755 24.0658 132.7 23.9571 132.592C23.8485 132.483 23.7942 132.353 23.7942 132.201C23.7942 132.049 23.8485 131.919 23.9571 131.81C24.0658 131.702 24.196 131.647 24.3477 131.647C24.4994 131.647 24.6296 131.702 24.7382 131.81C24.8469 131.919 24.9012 132.049 24.9012 132.201C24.9012 132.301 24.8756 132.394 24.8243 132.478C24.7751 132.562 24.7085 132.629 24.6244 132.681C24.5424 132.73 24.4502 132.755 24.3477 132.755ZM28.0324 132.791C27.6716 132.791 27.3466 132.72 27.0576 132.576C26.7685 132.433 26.5369 132.236 26.3626 131.986C26.1884 131.736 26.093 131.451 26.0766 131.131H26.8147C26.8434 131.416 26.9725 131.652 27.2021 131.838C27.4338 132.023 27.7105 132.115 28.0324 132.115C28.2907 132.115 28.5203 132.054 28.7212 131.933C28.9242 131.813 29.083 131.646 29.1978 131.435C29.3147 131.222 29.3731 130.981 29.3731 130.713C29.3731 130.438 29.3126 130.193 29.1917 129.978C29.0728 129.76 28.9088 129.589 28.6997 129.464C28.4906 129.339 28.2517 129.276 27.9832 129.274C27.7905 129.271 27.5927 129.301 27.3897 129.363C27.1867 129.422 27.0197 129.499 26.8885 129.593L26.175 129.507L26.5564 126.408H29.8282V127.084H27.196L26.9746 128.941H27.0115C27.1406 128.839 27.3026 128.754 27.4973 128.686C27.6921 128.619 27.895 128.585 28.1062 128.585C28.4916 128.585 28.835 128.677 29.1363 128.861C29.4397 129.044 29.6775 129.294 29.8498 129.612C30.024 129.93 30.1111 130.292 30.1111 130.7C30.1111 131.102 30.0209 131.461 29.8405 131.777C29.6622 132.09 29.4162 132.338 29.1025 132.521C28.7889 132.701 28.4321 132.791 28.0324 132.791Z" fill="#999999"/>
<path d="M20.0457 105.608L22.8624 100.036V99.9864H19.6151V99.3099H23.6496V100.023L20.8452 105.608H20.0457ZM24.8082 104.747L24.759 105.079C24.7241 105.312 24.6708 105.563 24.5991 105.829C24.5294 106.096 24.4566 106.347 24.3807 106.582C24.3049 106.818 24.2424 107.006 24.1932 107.145H23.6396C23.6663 107.014 23.7011 106.841 23.7442 106.626C23.7872 106.41 23.8303 106.169 23.8734 105.903C23.9185 105.638 23.9554 105.368 23.9841 105.091L24.021 104.747H24.8082ZM27.9747 105.694C27.5114 105.694 27.1168 105.568 26.7908 105.316C26.4649 105.061 26.2158 104.693 26.0436 104.212C25.8714 103.728 25.7853 103.144 25.7853 102.459C25.7853 101.778 25.8714 101.197 26.0436 100.715C26.2178 100.231 26.4679 99.8624 26.7939 99.6082C27.1219 99.3519 27.5155 99.2238 27.9747 99.2238C28.4339 99.2238 28.8265 99.3519 29.1525 99.6082C29.4805 99.8624 29.7306 100.231 29.9028 100.715C30.077 101.197 30.1642 101.778 30.1642 102.459C30.1642 103.144 30.0781 103.728 29.9059 104.212C29.7337 104.693 29.4846 105.061 29.1586 105.316C28.8327 105.568 28.438 105.694 27.9747 105.694ZM27.9747 105.017C28.4339 105.017 28.7906 104.796 29.0449 104.353C29.2991 103.91 29.4262 103.279 29.4262 102.459C29.4262 101.913 29.3677 101.449 29.2509 101.066C29.1361 100.682 28.97 100.39 28.7527 100.189C28.5375 99.9885 28.2781 99.888 27.9747 99.888C27.5196 99.888 27.1639 100.113 26.9077 100.561C26.6514 101.008 26.5233 101.641 26.5233 102.459C26.5233 103.004 26.5807 103.467 26.6955 103.849C26.8103 104.23 26.9753 104.52 27.1906 104.719C27.4079 104.918 27.6693 105.017 27.9747 105.017Z" fill="#999999"/>
<path d="M20.0964 78.5098L22.9132 72.9377V72.8885H19.6659V72.212H23.7004V72.9254L20.8959 78.5098H20.0964ZM24.8589 77.6487L24.8097 77.9809C24.7749 78.2146 24.7216 78.4647 24.6498 78.7312C24.5801 78.9977 24.5073 79.2488 24.4315 79.4846C24.3556 79.7203 24.2931 79.9079 24.2439 80.0473H23.6904C23.717 79.9161 23.7519 79.7429 23.7949 79.5276C23.838 79.3124 23.881 79.0715 23.9241 78.805C23.9692 78.5405 24.0061 78.2699 24.0348 77.9932L24.0717 77.6487H24.8589ZM28.0324 78.5959C27.6716 78.5959 27.3466 78.5241 27.0576 78.3806C26.7685 78.2371 26.5369 78.0403 26.3626 77.7902C26.1884 77.5401 26.093 77.2551 26.0766 76.9353H26.8147C26.8434 77.2203 26.9725 77.456 27.2021 77.6426C27.4338 77.8271 27.7105 77.9194 28.0324 77.9194C28.2907 77.9194 28.5203 77.8589 28.7212 77.7379C28.9242 77.617 29.083 77.4509 29.1978 77.2398C29.3147 77.0266 29.3731 76.7857 29.3731 76.5171C29.3731 76.2424 29.3126 75.9974 29.1917 75.7822C29.0728 75.5649 28.9088 75.3937 28.6997 75.2686C28.4906 75.1436 28.2517 75.08 27.9832 75.078C27.7905 75.0759 27.5926 75.1057 27.3897 75.1672C27.1867 75.2266 27.0197 75.3035 26.8885 75.3978L26.175 75.3117L26.5563 72.212H29.8282V72.8885H27.196L26.9746 74.7459H27.0115C27.1406 74.6434 27.3026 74.5583 27.4973 74.4906C27.6921 74.423 27.895 74.3892 28.1062 74.3892C28.4916 74.3892 28.835 74.4814 29.1363 74.6659C29.4397 74.8484 29.6775 75.0985 29.8497 75.4162C30.024 75.734 30.1111 76.0969 30.1111 76.5048C30.1111 76.9066 30.0209 77.2654 29.8405 77.5811C29.6622 77.8948 29.4162 78.1428 29.1025 78.3253C28.7888 78.5057 28.4321 78.5959 28.0324 78.5959Z" fill="#999999"/>
<path d="M20.6315 52.6503C20.2092 52.6503 19.836 52.5755 19.5121 52.4258C19.1903 52.2741 18.9391 52.066 18.7587 51.8016C18.5783 51.5351 18.4892 51.2317 18.4912 50.8914C18.4892 50.6249 18.5414 50.3789 18.648 50.1534C18.7546 49.9258 18.9002 49.7362 19.0847 49.5845C19.2713 49.4307 19.4793 49.3333 19.7089 49.2923V49.2554C19.4076 49.1775 19.1677 49.0084 18.9894 48.748C18.811 48.4856 18.7229 48.1874 18.7249 47.8532C18.7229 47.5334 18.8038 47.2474 18.9678 46.9953C19.1319 46.7431 19.3574 46.5442 19.6444 46.3987C19.9334 46.2531 20.2625 46.1804 20.6315 46.1804C20.9964 46.1804 21.3223 46.2531 21.6093 46.3987C21.8963 46.5442 22.1218 46.7431 22.2858 46.9953C22.4519 47.2474 22.536 47.5334 22.538 47.8532C22.536 48.1874 22.4447 48.4856 22.2643 48.748C22.086 49.0084 21.8492 49.1775 21.554 49.2554V49.2923C21.7815 49.3333 21.9865 49.4307 22.169 49.5845C22.3514 49.7362 22.497 49.9258 22.6057 50.1534C22.7143 50.3789 22.7697 50.6249 22.7717 50.8914C22.7697 51.2317 22.6774 51.5351 22.495 51.8016C22.3145 52.066 22.0634 52.2741 21.7416 52.4258C21.4218 52.5755 21.0517 52.6503 20.6315 52.6503ZM20.6315 51.9738C20.9164 51.9738 21.1624 51.9277 21.3695 51.8354C21.5765 51.7432 21.7364 51.613 21.8492 51.4449C21.9619 51.2768 22.0193 51.08 22.0214 50.8545C22.0193 50.6167 21.9578 50.4065 21.8369 50.2241C21.7159 50.0416 21.5509 49.8981 21.3418 49.7936C21.1347 49.689 20.898 49.6367 20.6315 49.6367C20.3629 49.6367 20.123 49.689 19.9119 49.7936C19.7028 49.8981 19.5378 50.0416 19.4168 50.2241C19.2979 50.4065 19.2395 50.6167 19.2415 50.8545C19.2395 51.08 19.2938 51.2768 19.4045 51.4449C19.5173 51.613 19.6782 51.7432 19.8873 51.8354C20.0964 51.9277 20.3445 51.9738 20.6315 51.9738ZM20.6315 48.9848C20.857 48.9848 21.0568 48.9397 21.2311 48.8495C21.4074 48.7593 21.5458 48.6332 21.6462 48.4713C21.7467 48.3093 21.7979 48.1197 21.8 47.9024C21.7979 47.6892 21.7477 47.5037 21.6493 47.3458C21.5509 47.1859 21.4146 47.0629 21.2403 46.9768C21.0661 46.8887 20.8631 46.8446 20.6315 46.8446C20.3957 46.8446 20.1897 46.8887 20.0134 46.9768C19.8371 47.0629 19.7007 47.1859 19.6044 47.3458C19.508 47.5037 19.4609 47.6892 19.4629 47.9024C19.4609 48.1197 19.5091 48.3093 19.6075 48.4713C19.7079 48.6332 19.8463 48.7593 20.0226 48.8495C20.1989 48.9397 20.4019 48.9848 20.6315 48.9848ZM24.2969 52.6134C24.1452 52.6134 24.0151 52.5591 23.9064 52.4504C23.7978 52.3418 23.7434 52.2116 23.7434 52.0599C23.7434 51.9082 23.7978 51.778 23.9064 51.6694C24.0151 51.5607 24.1452 51.5064 24.2969 51.5064C24.4486 51.5064 24.5788 51.5607 24.6875 51.6694C24.7961 51.778 24.8505 51.9082 24.8505 52.0599C24.8505 52.1603 24.8248 52.2526 24.7736 52.3367C24.7244 52.4207 24.6578 52.4884 24.5737 52.5396C24.4917 52.5888 24.3994 52.6134 24.2969 52.6134ZM27.9747 52.6503C27.5114 52.6503 27.1168 52.5242 26.7908 52.2721C26.4649 52.0179 26.2158 51.6499 26.0436 51.1681C25.8714 50.6843 25.7853 50.1001 25.7853 49.4153C25.7853 48.7347 25.8714 48.1535 26.0436 47.6718C26.2178 47.188 26.4679 46.819 26.7939 46.5647C27.1219 46.3085 27.5155 46.1804 27.9747 46.1804C28.4339 46.1804 28.8265 46.3085 29.1525 46.5647C29.4805 46.819 29.7306 47.188 29.9028 47.6718C30.077 48.1535 30.1642 48.7347 30.1642 49.4153C30.1642 50.1001 30.0781 50.6843 29.9059 51.1681C29.7337 51.6499 29.4846 52.0179 29.1586 52.2721C28.8327 52.5242 28.438 52.6503 27.9747 52.6503ZM27.9747 51.9738C28.4339 51.9738 28.7906 51.7524 29.0449 51.3096C29.2991 50.8668 29.4262 50.2354 29.4262 49.4153C29.4262 48.87 29.3677 48.4057 29.2509 48.0223C29.1361 47.639 28.97 47.3468 28.7527 47.1459C28.5375 46.945 28.2781 46.8446 27.9747 46.8446C27.5196 46.8446 27.1639 47.0691 26.9077 47.518C26.6514 47.9649 26.5233 48.5974 26.5233 49.4153C26.5233 49.9606 26.5807 50.424 26.6955 50.8053C26.8103 51.1866 26.9753 51.4767 27.1906 51.6755C27.4079 51.8744 27.6693 51.9738 27.9747 51.9738Z" fill="#999999"/>
<defs>
<filter id="filter0_dd_1_1586" x="373.951" y="81.7752" width="19.9711" height="19.9713" filterUnits="userSpaceOnUse" color-interpolation-filters="sRGB">
<feFlood flood-opacity="0" result="BackgroundImageFix"/>
<feColorMatrix in="SourceAlpha" type="matrix" values="0 0 0 0 0 0 0 0 0 0 0 0 0 0 0 0 0 0 127 0" result="hardAlpha"/>
<feOffset dy="1.57444"/>
<feGaussianBlur stdDeviation="1.57444"/>
<feColorMatrix type="matrix" values="0 0 0 0 0.196487 0 0 0 0 0.196487 0 0 0 0 0.279476 0 0 0 0.06 0"/>
<feBlend mode="multiply" in2="BackgroundImageFix" result="effect1_dropShadow_1_1586"/>
<feColorMatrix in="SourceAlpha" type="matrix" values="0 0 0 0 0 0 0 0 0 0 0 0 0 0 0 0 0 0 127 0" result="hardAlpha"/>
<feOffset dy="1.57444"/>
<feGaussianBlur stdDeviation="0.787218"/>
<feColorMatrix type="matrix" values="0 0 0 0 0.196487 0 0 0 0 0.196487 0 0 0 0 0.279476 0 0 0 0.06 0"/>
<feBlend mode="multiply" in2="effect1_dropShadow_1_1586" result="effect2_dropShadow_1_1586"/>
<feBlend mode="normal" in="SourceGraphic" in2="effect2_dropShadow_1_1586" result="shape"/>
</filter>
<filter id="filter1_dd_1_1586" x="484.082" y="65.8572" width="19.9711" height="19.9713" filterUnits="userSpaceOnUse" color-interpolation-filters="sRGB">
<feFlood flood-opacity="0" result="BackgroundImageFix"/>
<feColorMatrix in="SourceAlpha" type="matrix" values="0 0 0 0 0 0 0 0 0 0 0 0 0 0 0 0 0 0 127 0" result="hardAlpha"/>
<feOffset dy="1.57444"/>
<feGaussianBlur stdDeviation="1.57444"/>
<feColorMatrix type="matrix" values="0 0 0 0 0.196487 0 0 0 0 0.196487 0 0 0 0 0.279476 0 0 0 0.06 0"/>
<feBlend mode="multiply" in2="BackgroundImageFix" result="effect1_dropShadow_1_1586"/>
<feColorMatrix in="SourceAlpha" type="matrix" values="0 0 0 0 0 0 0 0 0 0 0 0 0 0 0 0 0 0 127 0" result="hardAlpha"/>
<feOffset dy="1.57444"/>
<feGaussianBlur stdDeviation="0.787218"/>
<feColorMatrix type="matrix" values="0 0 0 0 0.196487 0 0 0 0 0.196487 0 0 0 0 0.279476 0 0 0 0.06 0"/>
<feBlend mode="multiply" in2="effect1_dropShadow_1_1586" result="effect2_dropShadow_1_1586"/>
<feBlend mode="normal" in="SourceGraphic" in2="effect2_dropShadow_1_1586" result="shape"/>
</filter>
<filter id="filter2_dd_1_1586" x="435.129" y="107.24" width="19.9711" height="19.9713" filterUnits="userSpaceOnUse" color-interpolation-filters="sRGB">
<feFlood flood-opacity="0" result="BackgroundImageFix"/>
<feColorMatrix in="SourceAlpha" type="matrix" values="0 0 0 0 0 0 0 0 0 0 0 0 0 0 0 0 0 0 127 0" result="hardAlpha"/>
<feOffset dy="1.57444"/>
<feGaussianBlur stdDeviation="1.57444"/>
<feColorMatrix type="matrix" values="0 0 0 0 0.196487 0 0 0 0 0.196487 0 0 0 0 0.279476 0 0 0 0.06 0"/>
<feBlend mode="multiply" in2="BackgroundImageFix" result="effect1_dropShadow_1_1586"/>
<feColorMatrix in="SourceAlpha" type="matrix" values="0 0 0 0 0 0 0 0 0 0 0 0 0 0 0 0 0 0 127 0" result="hardAlpha"/>
<feOffset dy="1.57444"/>
<feGaussianBlur stdDeviation="0.787218"/>
<feColorMatrix type="matrix" values="0 0 0 0 0.196487 0 0 0 0 0.196487 0 0 0 0 0.279476 0 0 0 0.06 0"/>
<feBlend mode="multiply" in2="effect1_dropShadow_1_1586" result="effect2_dropShadow_1_1586"/>
<feBlend mode="normal" in="SourceGraphic" in2="effect2_dropShadow_1_1586" result="shape"/>
</filter>
<filter id="filter3_dd_1_1586" x="304.203" y="94.5056" width="19.9711" height="19.9713" filterUnits="userSpaceOnUse" color-interpolation-filters="sRGB">
<feFlood flood-opacity="0" result="BackgroundImageFix"/>
<feColorMatrix in="SourceAlpha" type="matrix" values="0 0 0 0 0 0 0 0 0 0 0 0 0 0 0 0 0 0 127 0" result="hardAlpha"/>
<feOffset dy="1.57444"/>
<feGaussianBlur stdDeviation="1.57444"/>
<feColorMatrix type="matrix" values="0 0 0 0 0.196487 0 0 0 0 0.196487 0 0 0 0 0.279476 0 0 0 0.06 0"/>
<feBlend mode="multiply" in2="BackgroundImageFix" result="effect1_dropShadow_1_1586"/>
<feColorMatrix in="SourceAlpha" type="matrix" values="0 0 0 0 0 0 0 0 0 0 0 0 0 0 0 0 0 0 127 0" result="hardAlpha"/>
<feOffset dy="1.57444"/>
<feGaussianBlur stdDeviation="0.787218"/>
<feColorMatrix type="matrix" values="0 0 0 0 0.196487 0 0 0 0 0.196487 0 0 0 0 0.279476 0 0 0 0.06 0"/>
<feBlend mode="multiply" in2="effect1_dropShadow_1_1586" result="effect2_dropShadow_1_1586"/>
<feBlend mode="normal" in="SourceGraphic" in2="effect2_dropShadow_1_1586" result="shape"/>
</filter>
<filter id="filter4_dd_1_1586" x="234.446" y="132.705" width="19.9711" height="19.9713" filterUnits="userSpaceOnUse" color-interpolation-filters="sRGB">
<feFlood flood-opacity="0" result="BackgroundImageFix"/>
<feColorMatrix in="SourceAlpha" type="matrix" values="0 0 0 0 0 0 0 0 0 0 0 0 0 0 0 0 0 0 127 0" result="hardAlpha"/>
<feOffset dy="1.57444"/>
<feGaussianBlur stdDeviation="1.57444"/>
<feColorMatrix type="matrix" values="0 0 0 0 0.196487 0 0 0 0 0.196487 0 0 0 0 0.279476 0 0 0 0.06 0"/>
<feBlend mode="multiply" in2="BackgroundImageFix" result="effect1_dropShadow_1_1586"/>
<feColorMatrix in="SourceAlpha" type="matrix" values="0 0 0 0 0 0 0 0 0 0 0 0 0 0 0 0 0 0 127 0" result="hardAlpha"/>
<feOffset dy="1.57444"/>
<feGaussianBlur stdDeviation="0.787218"/>
<feColorMatrix type="matrix" values="0 0 0 0 0.196487 0 0 0 0 0.196487 0 0 0 0 0.279476 0 0 0 0.06 0"/>
<feBlend mode="multiply" in2="effect1_dropShadow_1_1586" result="effect2_dropShadow_1_1586"/>
<feBlend mode="normal" in="SourceGraphic" in2="effect2_dropShadow_1_1586" result="shape"/>
</filter>
<filter id="filter5_dd_1_1586" x="173.267" y="118.908" width="19.9711" height="19.9713" filterUnits="userSpaceOnUse" color-interpolation-filters="sRGB">
<feFlood flood-opacity="0" result="BackgroundImageFix"/>
<feColorMatrix in="SourceAlpha" type="matrix" values="0 0 0 0 0 0 0 0 0 0 0 0 0 0 0 0 0 0 127 0" result="hardAlpha"/>
<feOffset dy="1.57444"/>
<feGaussianBlur stdDeviation="1.57444"/>
<feColorMatrix type="matrix" values="0 0 0 0 0.196487 0 0 0 0 0.196487 0 0 0 0 0.279476 0 0 0 0.06 0"/>
<feBlend mode="multiply" in2="BackgroundImageFix" result="effect1_dropShadow_1_1586"/>
<feColorMatrix in="SourceAlpha" type="matrix" values="0 0 0 0 0 0 0 0 0 0 0 0 0 0 0 0 0 0 127 0" result="hardAlpha"/>
<feOffset dy="1.57444"/>
<feGaussianBlur stdDeviation="0.787218"/>
<feColorMatrix type="matrix" values="0 0 0 0 0.196487 0 0 0 0 0.196487 0 0 0 0 0.279476 0 0 0 0.06 0"/>
<feBlend mode="multiply" in2="effect1_dropShadow_1_1586" result="effect2_dropShadow_1_1586"/>
<feBlend mode="normal" in="SourceGraphic" in2="effect2_dropShadow_1_1586" result="shape"/>
</filter>
<filter id="filter6_dd_1_1586" x="102.294" y="153.924" width="19.9711" height="19.9713" filterUnits="userSpaceOnUse" color-interpolation-filters="sRGB">
<feFlood flood-opacity="0" result="BackgroundImageFix"/>
<feColorMatrix in="SourceAlpha" type="matrix" values="0 0 0 0 0 0 0 0 0 0 0 0 0 0 0 0 0 0 127 0" result="hardAlpha"/>
<feOffset dy="1.57444"/>
<feGaussianBlur stdDeviation="1.57444"/>
<feColorMatrix type="matrix" values="0 0 0 0 0.196487 0 0 0 0 0.196487 0 0 0 0 0.279476 0 0 0 0.06 0"/>
<feBlend mode="multiply" in2="BackgroundImageFix" result="effect1_dropShadow_1_1586"/>
<feColorMatrix in="SourceAlpha" type="matrix" values="0 0 0 0 0 0 0 0 0 0 0 0 0 0 0 0 0 0 127 0" result="hardAlpha"/>
<feOffset dy="1.57444"/>
<feGaussianBlur stdDeviation="0.787218"/>
<feColorMatrix type="matrix" values="0 0 0 0 0.196487 0 0 0 0 0.196487 0 0 0 0 0.279476 0 0 0 0.06 0"/>
<feBlend mode="multiply" in2="effect1_dropShadow_1_1586" result="effect2_dropShadow_1_1586"/>
<feBlend mode="normal" in="SourceGraphic" in2="effect2_dropShadow_1_1586" result="shape"/>
</filter>
</defs>
</svg>
